<svg width="88" height="91" viewBox="0 0 88 91" fill="none" xmlns="http://www.w3.org/2000/svg">
<g clip-path="url(#clip0_669_647)">
<path d="M79.0935 33.0254H12.0542V34.1032H79.0935V33.0254Z" fill="black"/>
<path d="M39.8855 27.4102H40.2554V27.4588C40.2554 27.6519 40.2152 27.7902 40.1361 27.8753C40.0555 27.9605 39.9288 28.003 39.7557 28.003C39.5827 28.003 39.4544 27.9605 39.3754 27.8753C39.2948 27.7902 39.256 27.6519 39.256 27.4588V25.4492C39.256 25.2561 39.2963 25.1178 39.3754 25.0326C39.4559 24.9475 39.5827 24.9049 39.7557 24.9049C39.9288 24.9049 40.057 24.9475 40.1361 25.0326C40.2166 25.1178 40.2554 25.2561 40.2554 25.4492V25.773H41.9693V24.1281C41.7769 24.0141 41.492 23.9108 41.1116 23.818C40.7328 23.7268 40.3255 23.6797 39.8915 23.6797C38.995 23.6797 38.3058 23.9001 37.824 24.341C37.3422 24.7818 37.1006 25.4856 37.1006 26.454C37.1006 27.4223 37.3422 28.0973 37.827 28.5503C38.3118 29.0018 38.9816 29.2283 39.8363 29.2283C40.2838 29.2283 40.7014 29.1842 41.0878 29.0945C41.4741 29.0048 41.768 28.903 41.9693 28.789V27.4132H42.3124V26.3871H39.8855V27.4132V27.4102Z" fill="black"/>
<path d="M27.8373 25.9234L27.1243 23.7754H23.9829V24.9049H24.326V28.0014H23.9829V29.1309H26.2323V28.0014H25.9027V25.627L27.1034 29.1309H28.1178L29.2842 25.5935V28.0014H28.9546V29.1309H31.5471V28.0014H31.204V24.9049H31.5471V23.7754H28.5235L27.8373 25.9234Z" fill="black"/>
<path d="M35.6951 23.7754H33.1996L32.0406 28.0014H31.7661V29.1294H34.111V28.0014H33.6993L33.8097 27.4511H34.742L34.8523 28.0014H34.4406V29.1294H37.1286V28.0014H36.8541L35.6951 23.7754ZM33.9603 26.7215L34.2408 25.3518H34.3094L34.5898 26.7215H33.9588H33.9603Z" fill="black"/>
<path d="M46.3802 23.7754H43.8847L42.7256 28.0014H42.4512V29.1294H44.796V28.0014H44.3844L44.4947 27.4511H45.427L45.5374 28.0014H45.1257V29.1294H47.8137V28.0014H47.5392L46.3802 23.7754ZM44.6454 26.7215L44.9258 25.3518H44.9944L45.2749 26.7215H44.6439H44.6454Z" fill="black"/>
<path d="M63.5207 26.9408L63.3387 26.9651C63.1657 26.9879 62.9897 26.9986 62.8122 26.9986C62.6869 26.9986 62.5631 26.9925 62.4407 26.9818V28.0034H62.0977V29.1314H66.7263V26.915H65.1899V28.0019H64.3605V26.7766H64.9646V25.9922H64.3605V24.9053H65.1899V25.8554H66.7263V23.7773H64.6171L63.5192 26.9408H63.5207Z" fill="black"/>
<path d="M59.9182 26.1907V26.5357L59.5945 26.0402C59.5841 26.0356 59.5751 26.031 59.5647 26.0265C59.0709 25.7954 58.6055 25.578 58.1267 25.4123C57.5345 25.2056 56.9259 25.0977 56.3681 25.0977C56.2353 25.0977 56.107 25.1053 55.9832 25.1174V28.0027H55.6401V29.1306H57.8895V28.0027H57.5599V26.028L59.5691 29.1322H61.4964V26.8048C60.9534 26.6528 60.4313 26.4278 59.9197 26.1922L59.9182 26.1907Z" fill="black"/>
<path d="M51.1609 28.0014H50.3092L52.4154 24.7665V23.7754H48.027V25.4689H49.3904V24.9049H50.1049L47.9927 28.1398V29.1309H52.5258V27.4375H51.1609V28.0014Z" fill="black"/>
<path d="M55.0211 25.3598C54.8645 25.4298 54.7153 25.5119 54.5796 25.6091L54.3439 25.7764L52.8597 23.7773H52.7583V24.9053H53.1014V28.0019H52.7583V29.1298H55.3642V28.0019H55.0211V25.3583V25.3598Z" fill="black"/>
<path d="M35.9352 7.98763V7.00105H39.4704V9.27065L39.7404 8.78116C41.3082 6.42794 44.8837 6.20144 46.9764 7.93899V7.00105H50.3177V11.294H47.0495C46.6692 10.4108 46.1411 9.61117 45.1119 9.51844C44.4734 9.46067 43.8231 9.62029 43.7798 10.3834C43.7425 11.0401 44.19 11.2241 44.6674 11.5007C46.347 12.4752 48.3473 13.1227 49.7121 14.5517L50.2685 15.3422C50.0537 12.504 51.1829 9.84983 53.4502 8.19589C56.1203 6.24856 60.6086 6.20448 63.3697 7.98763C67.1719 10.4427 68.0475 16.0004 65.0642 19.4877C63.486 21.3316 61.3052 22.3182 58.8903 22.3L61.5141 23.0053C62.4986 23.2227 63.5054 23.3762 64.5078 23.1877L63.3026 26.6613C61.4589 26.903 59.8837 25.7006 58.225 25.1244C57.0227 24.7064 55.4982 24.5833 54.4108 25.3585L52.8371 23.2379C53.0967 23.0874 53.3175 22.8852 53.58 22.7347C54.1006 22.4383 54.6614 22.2696 55.2491 22.1647L56.1307 22.0522C53.932 21.552 51.8959 19.9437 50.9487 17.8565L50.5997 19.3493C49.4585 22.1023 46.2694 22.905 43.6873 21.777L42.5239 21.1127V22.0507H39.2303V18.8918C38.9693 19.173 38.7932 19.5424 38.5516 19.8525C36.5498 22.4277 32.8773 22.7271 29.9239 21.9868C21.6601 19.9164 23.1488 6.12695 32.3299 6.70309C33.1533 6.75478 34.1438 6.99192 34.8896 7.35068L35.9382 7.98459L35.9352 7.98763ZM58.4428 10.2208C57.6761 10.2664 57.1704 10.7878 56.9362 11.5022C56.5156 12.7868 56.4693 16.8502 57.1719 18.0009C57.8744 19.1517 59.4989 19.0164 60.0582 17.7927C60.6161 16.575 60.5893 12.5755 60.091 11.3244C59.8076 10.613 59.2184 10.1736 58.4413 10.2208H58.4428ZM39.8091 17.2652H42.497C42.7998 18.0146 43.1563 18.7945 43.9603 19.0803C44.548 19.2885 45.6175 19.3509 45.8771 18.6364C46.1471 17.8945 45.6802 17.4643 45.1208 17.1086C44.1304 16.4777 42.8848 16.0612 41.8422 15.4653C40.6399 14.7767 39.7121 13.9087 39.2691 12.536L35.8219 12.5299C35.4087 11.2149 34.5077 10.1979 33.0519 10.3044C30.8845 10.4625 30.8054 13.6837 30.8964 15.3179C30.9874 16.952 31.6273 18.9678 33.6694 18.7321C35.2357 18.5512 35.895 16.8289 36.0799 15.4395L39.8583 16.797L39.8971 16.8821L39.8091 17.2637V17.2652Z" fill="black"/>
<path d="M88 91H0V0H88V91ZM0.894991 90.0879H87.105V0.912098H0.894991V90.0879Z" fill="black"/>
<path d="M12.0542 83.5546V78.418H12.9507C13.34 78.418 13.6533 78.4666 13.8904 78.5639C14.1276 78.6612 14.3036 78.8178 14.417 79.0306C14.5303 79.2449 14.587 79.5353 14.587 79.9032C14.587 80.2711 14.5318 80.5462 14.42 80.7681C14.3096 80.9901 14.141 81.1543 13.9143 81.2592C13.6876 81.364 13.3982 81.4157 13.0461 81.4157H12.9029V83.5546H12.0542ZM13.0193 80.6861C13.1953 80.6861 13.334 80.6617 13.434 80.6116C13.5339 80.5614 13.6055 80.4793 13.6518 80.3668C13.6965 80.2528 13.7189 80.0962 13.7189 79.8971C13.7189 79.698 13.695 79.5444 13.6473 79.438C13.5996 79.3316 13.525 79.2541 13.4235 79.2069C13.3221 79.1598 13.1849 79.1355 13.0133 79.1355H12.9044V80.6891H13.0193V80.6861Z" fill="black"/>
<path d="M15.2793 83.5546V78.418H16.128V80.455H17.0917V78.418H17.9404V83.5546H17.0917V81.2181H16.128V83.5546H15.2793Z" fill="black"/>
<path d="M18.9307 83.5546V78.418H19.7794V83.5546H18.9307Z" fill="black"/>
<path d="M20.77 83.5546V78.418H21.6188V82.7915H22.7047V83.5546H20.77Z" fill="black"/>
<path d="M22.8804 83.5546L23.9797 78.418H24.9433L25.989 83.5546H25.0999L24.5779 80.3258C24.5376 80.0491 24.4914 79.7086 24.4421 79.3042H24.4496C24.4317 79.4866 24.4123 79.6599 24.3914 79.8256C24.3705 79.9913 24.3422 80.1601 24.3064 80.3334L23.7709 83.5561H22.8819L22.8804 83.5546ZM23.6337 82.6623V81.9676H25.2417V82.6623H23.6337Z" fill="black"/>
<path d="M26.5454 83.5546V78.418H27.3255L28.7516 82.2807L28.5755 82.2944L28.501 78.418H29.2945V83.5546H28.5412L27.1093 79.6919L27.2927 79.6721L27.3464 83.5546H26.5454Z" fill="black"/>
<path d="M30.6311 83.5546V79.1948H29.8569V78.418H32.26V79.1948H31.4858V83.5546H30.6311Z" fill="black"/>
<path d="M32.8237 83.5546V78.418H33.6725V80.455H34.6361V78.418H35.4848V83.5546H34.6361V81.2181H33.6725V83.5546H32.8237Z" fill="black"/>
<path d="M36.4756 83.5546V78.418H37.4735C37.836 78.418 38.1298 78.4712 38.3566 78.5776C38.5833 78.684 38.7474 78.8436 38.8518 79.0549C38.9562 79.2662 39.0084 79.5368 39.0084 79.8682C39.0084 80.1449 38.9741 80.3759 38.907 80.5599C38.8399 80.7438 38.7384 80.8882 38.6057 80.9931C38.4714 81.098 38.3103 81.1679 38.1209 81.2044L37.3273 81.2455V83.5546H36.4786H36.4756ZM38.2879 83.5546L37.2095 80.8913L37.9628 80.8442L39.2053 83.5546H38.2894H38.2879ZM37.4467 80.7134C37.6316 80.7134 37.7748 80.6891 37.8748 80.6389C37.9747 80.5888 38.0448 80.5067 38.0851 80.3896C38.1254 80.2741 38.1462 80.1145 38.1462 79.9092C38.1462 79.6873 38.1209 79.5201 38.0687 79.4091C38.0165 79.2981 37.9404 79.2237 37.8375 79.1841C37.736 79.1461 37.5913 79.1264 37.4064 79.1264H37.3243V80.7134H37.4467Z" fill="black"/>
<path d="M41.165 83.6348C40.8205 83.6348 40.5341 83.5329 40.3029 83.3277C40.0717 83.124 39.9001 82.823 39.7867 82.4278C39.6734 82.0325 39.6167 81.5506 39.6167 80.9836C39.6167 80.4166 39.6734 79.9484 39.7867 79.5532C39.9001 79.1579 40.0702 78.8554 40.2999 78.6471C40.5281 78.4389 40.816 78.334 41.165 78.334C41.532 78.334 41.8288 78.4526 42.057 78.6912C42.2853 78.9299 42.4523 79.2461 42.5553 79.6413C42.6597 80.0366 42.7119 80.4865 42.7119 80.9897C42.7119 81.5659 42.6507 82.0508 42.5284 82.4445C42.4061 82.8382 42.2301 83.1331 41.9989 83.3338C41.7677 83.5345 41.4902 83.6333 41.1635 83.6333L41.165 83.6348ZM41.165 82.8246C41.3231 82.8246 41.4529 82.7531 41.5514 82.6102C41.6513 82.4673 41.7214 82.2606 41.7647 81.99C41.8079 81.7194 41.8288 81.385 41.8288 80.9851C41.8288 80.5853 41.8109 80.2813 41.7751 80.0183C41.7393 79.7553 41.6707 79.544 41.5723 79.3844C41.4723 79.2248 41.3321 79.1458 41.1516 79.1458C40.9711 79.1458 40.8443 79.2294 40.7444 79.3951C40.6444 79.5608 40.5773 79.7781 40.54 80.0457C40.5042 80.3132 40.4863 80.6264 40.4863 80.9851C40.4863 81.3621 40.5072 81.6844 40.5475 81.952C40.5878 82.2195 40.6579 82.4323 40.7578 82.5889C40.8578 82.7455 40.9935 82.8246 41.165 82.8246Z" fill="black"/>
<path d="M43.5342 83.5546V78.418H44.4307C44.82 78.418 45.1332 78.4666 45.3704 78.5639C45.6076 78.6612 45.7836 78.8178 45.897 79.0306C46.0103 79.2449 46.067 79.5353 46.067 79.9032C46.067 80.2711 46.0118 80.5462 45.8999 80.7681C45.7881 80.9901 45.621 81.1543 45.3943 81.2592C45.1675 81.364 44.8782 81.4157 44.5261 81.4157H44.3829V83.5546H43.5342ZM44.4993 80.6861C44.6753 80.6861 44.814 80.6617 44.914 80.6116C45.0139 80.5614 45.0855 80.4793 45.1317 80.3668C45.1765 80.2528 45.2004 80.0962 45.2004 79.8971C45.2004 79.698 45.1765 79.5444 45.1288 79.438C45.081 79.3316 45.0064 79.2541 44.905 79.2069C44.8036 79.1598 44.6663 79.1355 44.4948 79.1355H44.3859V80.6891H44.5008L44.4993 80.6861Z" fill="black"/>
<path d="M46.7588 83.5546V78.418H47.6075V83.5546H46.7588Z" fill="black"/>
<path d="M48.5981 83.5546V78.418H50.6074V79.1735H49.4469V80.4945H50.5328V81.25H49.4469V82.796H50.6074V83.5516H48.5981V83.5546Z" fill="black"/>
<path d="M52.2557 83.6357C52.1334 83.6357 52.0171 83.6265 51.9067 83.6083C51.7963 83.5901 51.6889 83.5627 51.5875 83.5262C51.486 83.4897 51.3891 83.4441 51.2996 83.3894L51.307 82.3602C51.3786 82.4515 51.4637 82.5335 51.5576 82.605C51.6516 82.6764 51.756 82.7342 51.8694 82.7752C51.9827 82.8163 52.0961 82.836 52.2095 82.836C52.3228 82.836 52.4213 82.8102 52.5048 82.757C52.5884 82.7053 52.6525 82.6293 52.6987 82.532C52.7435 82.4347 52.7659 82.3177 52.7659 82.1809C52.7659 82.076 52.745 81.9772 52.7017 81.8844C52.6585 81.7917 52.5913 81.6944 52.4974 81.5956C52.4034 81.4968 52.2751 81.3828 52.1066 81.2551C52.0931 81.2505 52.0797 81.2429 52.0663 81.2308C52.0529 81.2201 52.0364 81.2095 52.0185 81.2004C51.8291 81.059 51.674 80.9191 51.5531 80.7778C51.4338 80.6364 51.3443 80.4874 51.2891 80.3278C51.2324 80.1682 51.2041 79.9979 51.2041 79.817C51.2041 79.5449 51.2608 79.2941 51.3742 79.0676C51.4875 78.8411 51.6471 78.6617 51.853 78.5325C52.0588 78.4033 52.29 78.3379 52.5481 78.3379C52.7062 78.3379 52.8613 78.3607 53.0135 78.4063C53.1656 78.4519 53.3014 78.5173 53.4237 78.6039L53.4296 79.6118C53.3029 79.4659 53.1701 79.3503 53.0329 79.2637C52.8941 79.177 52.7554 79.1345 52.6152 79.1345C52.5108 79.1345 52.4168 79.1603 52.3333 79.2135C52.2498 79.2652 52.1841 79.3382 52.1364 79.4278C52.0887 79.5175 52.0648 79.6255 52.0648 79.7486C52.0648 79.8717 52.0887 79.9842 52.1364 80.0754C52.1841 80.1666 52.2527 80.2518 52.3437 80.3339C52.4347 80.416 52.5585 80.5132 52.7166 80.6273C52.7256 80.6318 52.7345 80.6379 52.7435 80.644C52.7524 80.6501 52.7614 80.6592 52.7703 80.6683C52.9643 80.8051 53.1239 80.9389 53.2447 81.0696C53.367 81.2019 53.4625 81.3493 53.5296 81.512C53.5967 81.6762 53.631 81.8692 53.631 82.0912C53.631 82.377 53.5728 82.6384 53.458 82.8741C53.3431 83.1097 53.1805 83.2951 52.9732 83.4289C52.7644 83.5627 52.5257 83.6296 52.2542 83.6296L52.2557 83.6357Z" fill="black"/>
<path d="M55.9968 83.5546V79.1948H55.2227V78.418H57.6257V79.1948H56.8515V83.5546H55.9968Z" fill="black"/>
<path d="M59.5054 83.6348C59.1608 83.6348 58.8744 83.5329 58.6432 83.3277C58.412 83.124 58.2404 82.823 58.1271 82.4278C58.0137 82.0325 57.957 81.5506 57.957 80.9836C57.957 80.4166 58.0137 79.9484 58.1271 79.5532C58.2404 79.1579 58.4105 78.8554 58.6402 78.6471C58.8684 78.4389 59.1578 78.334 59.5054 78.334C59.8723 78.334 60.1691 78.4526 60.3974 78.6912C60.6256 78.9299 60.7927 79.2461 60.8956 79.6413C61 80.0366 61.0522 80.4865 61.0522 80.9897C61.0522 81.5659 60.991 82.0508 60.8687 82.4445C60.7464 82.8367 60.5704 83.1331 60.3392 83.3338C60.108 83.5345 59.8305 83.6333 59.5039 83.6333L59.5054 83.6348ZM59.5054 82.8246C59.6635 82.8246 59.7933 82.7531 59.8917 82.6102C59.9916 82.4673 60.0618 82.2606 60.105 81.99C60.1483 81.7194 60.1691 81.385 60.1691 80.9851C60.1691 80.5853 60.1513 80.2813 60.1155 80.0183C60.0797 79.7553 60.011 79.544 59.9111 79.3844C59.8112 79.2248 59.6709 79.1458 59.4904 79.1458C59.31 79.1458 59.1832 79.2294 59.0832 79.3951C58.9833 79.5608 58.9162 79.7781 58.8804 80.0457C58.8446 80.3132 58.8267 80.6264 58.8267 80.9851C58.8267 81.3621 58.8475 81.6844 58.8878 81.952C58.9281 82.2195 58.9982 82.4323 59.0981 82.5889C59.1981 82.7455 59.3338 82.8246 59.5054 82.8246Z" fill="black"/>
<path d="M63.7606 83.5546L62.8164 78.418H63.6577L64.1738 82.2047L64.7839 78.418H65.5103L66.0742 82.1925L66.6246 78.418H67.4659L66.5157 83.5546H65.7072L65.13 79.7056L64.5661 83.5546H63.7591H63.7606Z" fill="black"/>
<path d="M67.5151 83.5546L68.6145 78.418H69.5781L70.6237 83.5546H69.7347L69.2126 80.3258C69.1724 80.0491 69.1261 79.7086 69.0769 79.3042H69.0844C69.0665 79.4866 69.0471 79.6599 69.0262 79.8256C69.0053 79.9913 68.977 80.1601 68.9412 80.3334L68.4057 83.5561H67.5166L67.5151 83.5546ZM68.2684 82.6623V81.9676H69.8764V82.6623H68.2684Z" fill="black"/>
<path d="M71.3025 83.5546V79.1948H70.5283V78.418H72.9314V79.1948H72.1572V83.5546H71.3025Z" fill="black"/>
<path d="M74.9408 83.635C74.5604 83.635 74.2457 83.5301 73.9936 83.3188C73.743 83.1075 73.558 82.8096 73.4402 82.4234C73.3223 82.0373 73.2642 81.5676 73.2642 81.0127C73.2642 80.4579 73.3238 80.0109 73.4446 79.6127C73.564 79.2159 73.7564 78.9043 74.0219 78.6793C74.2874 78.4543 74.6231 78.3418 75.0303 78.3418C75.1392 78.3418 75.2525 78.3555 75.3734 78.3828C75.4927 78.4102 75.5941 78.4467 75.6747 78.4923V79.4044C75.5747 79.3223 75.4778 79.2585 75.3823 79.2144C75.2868 79.1688 75.1779 79.146 75.0571 79.146C74.8349 79.146 74.6544 79.222 74.5142 79.374C74.3739 79.526 74.2755 79.7358 74.2188 80.0033C74.1621 80.2709 74.1338 80.6023 74.1338 80.9975C74.1338 81.3928 74.1621 81.7409 74.2188 82.0024C74.2755 82.2638 74.368 82.466 74.4978 82.6089C74.626 82.7518 74.805 82.8232 75.0303 82.8232C75.1123 82.8232 75.1929 82.8111 75.2749 82.7852C75.3569 82.7609 75.43 82.729 75.4957 82.6895C75.5613 82.6515 75.6329 82.6028 75.709 82.5435L75.6821 83.4298C75.5777 83.4936 75.4629 83.5438 75.3361 83.5803C75.2093 83.6168 75.078 83.635 74.9423 83.635H74.9408Z" fill="black"/>
<path d="M76.4341 83.5546V78.418H77.2828V80.455H78.2464V78.418H79.0952V83.5546H78.2464V81.2181H77.2828V83.5546H76.4341Z" fill="black"/>
<path d="M18.7965 38.3926H12.0542V73.5083H18.7965V38.3926Z" fill="black"/>
<path d="M60.9596 37.457C55.7001 37.457 50.9536 39.7297 47.6108 43.3598C48.9235 44.9742 49.9915 46.8015 50.7597 48.7807C53.024 45.52 56.7502 43.3857 60.9596 43.3857C67.8481 43.3857 73.4507 49.0969 73.4507 56.1155C73.4507 63.1341 67.8466 68.8454 60.9596 68.8454C56.7502 68.8454 53.024 66.7111 50.7597 63.4503C49.9915 65.4311 48.9235 67.2568 47.6108 68.8712C50.9536 72.5013 55.7001 74.774 60.9596 74.774C71.0551 74.774 79.2682 66.404 79.2682 56.1155C79.2682 45.8271 71.0551 37.457 60.9596 37.457Z" fill="black"/>
<path d="M32.472 37.457C27.7151 37.457 23.3759 39.3162 20.1182 42.358V54.2366C21.0132 48.1058 26.2116 43.3857 32.472 43.3857C39.3605 43.3857 44.9631 49.0969 44.9631 56.1155C44.9631 63.1341 39.359 68.8454 32.472 68.8454C26.2116 68.8454 21.0117 64.1268 20.1182 57.996V69.8745C23.3774 72.9164 27.7151 74.7755 32.472 74.7755C42.5675 74.7755 50.7806 66.4055 50.7806 56.117C50.7806 45.8286 42.5675 37.4586 32.472 37.4586V37.457Z" fill="black"/>
</g>
<defs>
<clipPath id="clip0_669_647">
<rect width="88" height="91" fill="white"/>
</clipPath>
</defs>
</svg>
