<svg width="48" height="48" viewBox="0 0 48 48" fill="none" xmlns="http://www.w3.org/2000/svg">
<path d="M24 0C10.7449 0 0 10.7449 0 24C0 37.2551 10.7449 48 24 48C37.2551 48 48 37.2551 48 24C47.9988 10.7449 37.2539 0 24 0ZM31.1101 22.1373L30.7103 25.3481C30.6426 25.8844 30.1884 26.2879 29.6497 26.2879H24.4494V39.7121C23.9009 39.7616 23.3453 39.787 22.7836 39.787C21.5273 39.787 20.3012 39.6614 19.1162 39.4222V26.2879H15.1166C14.7493 26.2879 14.4498 25.9871 14.4498 25.6187V21.601C14.4498 21.2325 14.7493 20.9318 15.1166 20.9318H19.1162V14.9064C19.1162 11.2088 22.1011 8.2118 25.7842 8.2118H30.4506C30.8178 8.2118 31.1174 8.51258 31.1174 8.88101V12.8987C31.1174 13.2672 30.8178 13.5679 30.4506 13.5679H27.1166C25.6441 13.5679 24.4506 14.7663 24.4506 16.246V20.933H30.0507C30.6934 20.933 31.1899 21.4983 31.1113 22.1385L31.1101 22.1373Z" fill="black"/>
</svg>
