<svg width="47" height="47" viewBox="0 0 47 47" fill="none" xmlns="http://www.w3.org/2000/svg">
<path d="M29.4507 13.4141H17.5493C15.2027 13.4141 13.2983 15.3184 13.2983 17.6651V29.5665C13.2983 31.9132 15.2027 33.8175 17.5493 33.8175H29.4507C31.7974 33.8175 33.7018 31.9132 33.7018 29.5665V17.6651C33.7018 15.3184 31.7974 13.4141 29.4507 13.4141ZM23.5119 29.9911C19.993 29.9911 17.1365 27.1346 17.1365 23.6158C17.1365 20.0969 19.993 17.2404 23.5119 17.2404C27.0307 17.2404 29.8872 20.0969 29.8872 23.6158C29.8872 27.1346 27.0307 29.9911 23.5119 29.9911ZM30.313 18.0897C29.6104 18.0897 29.0379 17.5172 29.0379 16.8146C29.0379 16.112 29.6104 15.5396 30.313 15.5396C31.0156 15.5396 31.5881 16.112 31.5881 16.8146C31.5881 17.5172 31.0156 18.0897 30.313 18.0897Z" fill="black"/>
<path d="M23.5 0C10.5211 0 0 10.5211 0 23.5C0 36.4789 10.5211 47 23.5 47C36.4789 47 47 36.4789 47 23.5C46.9988 10.5211 36.4778 0 23.5 0ZM35.826 29.8753C35.826 33.1612 33.1612 35.826 29.8753 35.826H17.1235C13.8377 35.826 11.1728 33.1612 11.1728 29.8753V17.1235C11.1728 13.8377 13.8377 11.1728 17.1235 11.1728H29.8753C33.1612 11.1728 35.826 13.8377 35.826 17.1235V29.8753Z" fill="black"/>
<path d="M23.5117 19.3652C21.1698 19.3652 19.2607 21.2743 19.2607 23.6162C19.2607 25.9582 21.1698 27.8672 23.5117 27.8672C25.8537 27.8672 27.7628 25.9582 27.7628 23.6162C27.7628 21.2743 25.8537 19.3652 23.5117 19.3652Z" fill="black"/>
</svg>
