<svg width="48" height="48" viewBox="0 0 48 48" fill="none" xmlns="http://www.w3.org/2000/svg">
<path fill-rule="evenodd" clip-rule="evenodd" d="M24 0C10.7449 0 0 10.7449 0 24C0 37.2551 10.7449 48 24 48C37.2551 48 48 37.2551 48 24C47.9988 10.7449 37.2539 0 24 0ZM17.0156 34.5H12.4863V19.9219H17.0156V34.5ZM14.751 17.9316C13.2998 17.9316 12.1221 16.7314 12.1221 15.2803C12.1221 13.8291 13.2998 12.6514 14.751 12.6514C16.2021 12.6514 17.3799 13.8291 17.3799 15.2803C17.3799 16.7314 16.2021 17.9316 14.751 17.9316ZM35.502 34.5H30.9756V27.1875C30.9756 25.4434 30.9434 23.2002 28.5469 23.2002C26.1152 23.2002 25.7432 25.1016 25.7432 27.0645V34.5H21.2168V19.9219H25.5615V21.9141H25.623C26.2275 20.7686 27.7061 19.5615 29.9121 19.5615C34.4971 19.5615 35.502 22.5791 35.502 26.502V34.5Z" fill="black"/>
</svg>
