<svg width="48" height="48" viewBox="0 0 48 48" fill="none" xmlns="http://www.w3.org/2000/svg">
<path d="M27.3221 23.1082L21.5697 20.2333C20.9053 19.9023 20.125 20.3842 20.125 21.1259V26.8759C20.125 27.6176 20.9066 28.0996 21.5697 27.7674L27.3221 24.8924C28.0565 24.524 28.0565 23.4755 27.3221 23.1082Z" fill="black"/>
<path d="M24 0C10.7449 0 0 10.7449 0 24C0 37.2551 10.7449 48 24 48C37.2551 48 48 37.2551 48 24C47.9988 10.7449 37.2539 0 24 0ZM38.0427 30.4687C38.0427 32.5126 36.3853 34.1687 34.3427 34.1687H13.6573C11.6134 34.1687 9.95611 32.5126 9.95611 30.4687V17.5313C9.95611 15.4886 11.6134 13.8313 13.6573 13.8313H34.3427C36.3853 13.8313 38.0427 15.4886 38.0427 17.5313V30.4687Z" fill="black"/>
</svg>
