<svg width="366" height="70" viewBox="0 0 366 70" fill="none" xmlns="http://www.w3.org/2000/svg">
<path d="M290.806 38.6066C290.315 38.7009 289.797 38.7811 289.271 38.8433C288.749 38.9054 288.225 38.9816 287.717 39.0719C287.247 39.1601 286.771 39.2804 286.309 39.4288C285.874 39.5692 285.49 39.7597 285.173 39.9943C284.866 40.2209 284.617 40.5116 284.43 40.8585C284.246 41.1994 284.153 41.6486 284.153 42.198C284.153 42.7154 284.246 43.1505 284.43 43.4894C284.615 43.8323 284.856 44.0929 285.171 44.2895C285.498 44.494 285.888 44.6384 286.332 44.7206C286.799 44.8088 287.289 44.8529 287.787 44.8529C289.006 44.8529 289.949 44.6544 290.592 44.2634C291.24 43.8704 291.722 43.3971 292.027 42.8577C292.34 42.3043 292.533 41.7388 292.605 41.1753C292.679 40.5738 292.718 40.0925 292.718 39.7436V38.0352C292.557 38.1154 292.384 38.1856 292.202 38.2477C291.77 38.3921 291.3 38.5124 290.806 38.6087V38.6066Z" fill="black"/>
<path d="M81.1083 31.9232C80.6948 31.2835 80.1547 30.7582 79.4982 30.3571C78.8538 29.9661 78.0187 29.7676 77.0169 29.7676C76.0151 29.7676 75.1599 29.9681 74.4833 30.3611C73.8008 30.7602 73.2467 31.2916 72.8351 31.9432C72.4135 32.611 72.1024 33.387 71.9137 34.2473C71.7189 35.1235 71.6226 36.054 71.6226 37.0105C71.6226 37.9028 71.729 38.8071 71.9357 39.6995C72.1405 40.5757 72.4718 41.3658 72.9235 42.0476C73.3691 42.7213 73.9353 43.2728 74.6078 43.6879C75.2663 44.0929 76.0774 44.2994 77.0169 44.2994C78.0207 44.2994 78.8639 44.1009 79.5243 43.7079C80.1889 43.3129 80.7269 42.7755 81.1244 42.1097C81.5319 41.428 81.827 40.6359 82.0037 39.7576C82.1824 38.8613 82.2747 37.9208 82.2747 36.9643C82.2747 36.0078 82.1844 35.0754 82.0037 34.1951C81.829 33.3389 81.5279 32.5749 81.1083 31.9232Z" fill="black"/>
<path d="M249.547 35.6824C248.663 35.0147 247.465 34.6758 245.987 34.6758H238.459V42.9534H245.849C246.527 42.9534 247.186 42.8872 247.804 42.7528C248.4 42.6245 248.932 42.4099 249.384 42.1152C249.818 41.8304 250.171 41.4354 250.432 40.9421C250.693 40.4468 250.826 39.7931 250.826 38.999C250.826 37.441 250.396 36.3261 249.547 35.6824Z" fill="black"/>
<path d="M248.39 28.0702C249.123 27.5288 249.481 26.6485 249.481 25.3812C249.481 24.6834 249.358 24.1099 249.115 23.6788C248.872 23.2477 248.547 22.9088 248.146 22.6682C247.726 22.4175 247.234 22.239 246.682 22.1408C246.104 22.0365 245.496 21.9844 244.875 21.9844H238.459V28.9184H245.431C246.636 28.9184 247.632 28.6337 248.392 28.0702H248.39Z" fill="black"/>
<path d="M0 0V69.1743H365.086V0H0ZM35.0421 49.0057C35.0421 49.2263 34.8614 49.4067 34.6406 49.4067H27.3591C27.1383 49.4067 26.9576 49.2263 26.9576 49.0057V22.4485H17.4357C17.2149 22.4485 17.0342 22.268 17.0342 22.0475V15.9335C17.0342 15.7129 17.2149 15.5325 17.4357 15.5325H44.566C44.7869 15.5325 44.9675 15.7129 44.9675 15.9335V22.0475C44.9675 22.268 44.7869 22.4485 44.566 22.4485H35.0441V49.0057H35.0421ZM61.9315 42.3865C61.3272 43.9766 60.4539 45.3562 59.3377 46.4851C58.2195 47.6181 56.8523 48.4984 55.2764 49.102C53.7065 49.7035 51.9338 50.0083 50.0085 50.0083C48.0833 50.0083 46.3166 49.7035 44.7628 49.102C43.2009 48.4984 41.8438 47.6181 40.7255 46.4851C39.6093 45.3542 38.736 43.9746 38.1318 42.3865C37.5295 40.8043 37.2243 39.0117 37.2243 37.0566C37.2243 35.1015 37.5295 33.3008 38.1318 31.7046C38.736 30.1004 39.6093 28.7128 40.7255 27.5799C41.8417 26.4489 43.1989 25.5606 44.7587 24.941C46.3126 24.3234 48.0793 24.0086 50.0085 24.0086C51.9378 24.0086 53.7105 24.3214 55.2804 24.939C56.8543 25.5586 58.2195 26.4469 59.3377 27.5779C60.4539 28.7088 61.3272 30.0964 61.9315 31.7026C62.5338 33.3028 62.8389 35.1035 62.8389 37.0546C62.8389 39.0056 62.5338 40.8003 61.9315 42.3844V42.3865ZM89.4292 49.0057C89.4292 49.2263 89.2485 49.4067 89.0276 49.4067H82.766C82.5452 49.4067 82.3645 49.2263 82.3645 49.0057V47.1007C81.6538 47.987 80.7966 48.6628 79.8029 49.116C78.504 49.7095 77.0204 50.0083 75.3922 50.0083C73.5433 50.0083 71.891 49.6434 70.4797 48.9215C69.0704 48.2016 67.892 47.211 66.9785 45.9778C66.0731 44.7546 65.3805 43.3329 64.9208 41.7508C64.465 40.1787 64.2322 38.5204 64.2322 36.822C64.2322 35.1235 64.465 33.5795 64.9208 32.0515C65.3805 30.5155 66.0731 29.1399 66.9805 27.9609C67.894 26.7758 69.0543 25.8113 70.4275 25.0934C71.8087 24.3715 73.4308 24.0046 75.2517 24.0046C76.7273 24.0046 78.1486 24.3214 79.4796 24.945C80.4874 25.4182 81.3427 26.0659 82.0373 26.878V15.9295C82.0373 15.7089 82.218 15.5285 82.4388 15.5285H89.0236C89.2445 15.5285 89.4251 15.7089 89.4251 15.9295V49.0017L89.4292 49.0057ZM114.839 49.2002C114.769 49.3285 114.634 49.4067 114.488 49.4067H107.81C107.638 49.4067 107.485 49.2965 107.429 49.132C107.301 48.745 107.194 48.348 107.114 47.9489C107.086 47.8106 107.062 47.6702 107.04 47.5299C106.078 48.362 104.974 48.9716 103.753 49.3426C102.3 49.7837 100.792 50.0083 99.2763 50.0083C98.1019 50.0083 96.9877 49.8639 95.9678 49.5772C94.9319 49.2864 94.0104 48.8252 93.2295 48.2076C92.4425 47.586 91.8182 46.7879 91.3765 45.8395C90.9368 44.895 90.712 43.762 90.712 42.4747C90.712 41.053 90.971 39.8599 91.4789 38.9254C91.9848 37.995 92.6513 37.239 93.4584 36.6796C94.2493 36.1301 95.1648 35.7151 96.1786 35.4404C97.1623 35.1757 98.1681 34.9631 99.1659 34.8067C100.164 34.6523 101.153 34.526 102.111 34.4337C103.047 34.3435 103.884 34.2071 104.602 34.0267C105.283 33.8562 105.823 33.6096 106.206 33.2948C106.538 33.0221 106.688 32.623 106.662 32.0716C106.662 31.4159 106.562 30.9126 106.365 30.5576C106.166 30.2007 105.909 29.93 105.582 29.7335C105.243 29.531 104.839 29.3926 104.384 29.3224C103.894 29.2482 103.36 29.2121 102.798 29.2121C101.593 29.2121 100.645 29.4648 99.9769 29.9661C99.3325 30.4493 98.9491 31.2895 98.8366 32.4626C98.8166 32.6691 98.6439 32.8255 98.4371 32.8255H91.8523C91.7419 32.8255 91.6355 32.7794 91.5592 32.6992C91.4829 32.619 91.4448 32.5107 91.4508 32.4004C91.5471 30.7922 91.9607 29.4307 92.6774 28.3579C93.3881 27.2931 94.3055 26.4269 95.4057 25.7792C96.4898 25.1415 97.7264 24.6823 99.0775 24.4116C100.415 24.1449 101.774 24.0106 103.121 24.0106C104.335 24.0106 105.586 24.0968 106.839 24.2692C108.112 24.4437 109.29 24.7906 110.344 25.3019C111.42 25.8233 112.311 26.5572 112.996 27.4856C113.695 28.4321 114.048 29.6894 114.048 31.2214V43.6818C114.048 44.7426 114.11 45.7713 114.231 46.7358C114.345 47.6602 114.546 48.354 114.821 48.7972C114.899 48.9215 114.903 49.0759 114.831 49.2042L114.839 49.2002ZM126.057 56.4752C124.728 57.3494 122.875 57.7926 120.55 57.7926C119.864 57.7926 119.175 57.7685 118.505 57.7224C117.85 57.6763 117.168 57.6222 116.479 57.56C116.272 57.5419 116.114 57.3675 116.114 57.161V51.7408C116.114 51.6285 116.162 51.5203 116.246 51.4441C116.331 51.3679 116.443 51.3318 116.555 51.3418C117.174 51.404 117.806 51.4641 118.455 51.5263C119.077 51.5844 119.707 51.6005 120.334 51.5724C121.08 51.4902 121.612 51.2115 121.962 50.7202C122.333 50.1988 122.514 49.6373 122.514 49.0077C122.514 48.5365 122.43 48.0873 122.265 47.6742L113.867 25.1997C113.821 25.0773 113.839 24.939 113.913 24.8307C113.988 24.7224 114.112 24.6583 114.243 24.6583H121.245C121.418 24.6583 121.572 24.7685 121.627 24.933L126.712 40.301L131.622 24.937C131.674 24.7705 131.831 24.6583 132.006 24.6583H138.823C138.954 24.6583 139.078 24.7224 139.153 24.8307C139.227 24.939 139.245 25.0753 139.199 25.1997L129.181 52.1118C128.444 54.1291 127.392 55.5969 126.057 56.4752ZM143.768 49.0057C143.768 50.1066 143.561 51.1353 143.154 52.0617C142.748 52.9841 142.196 53.7962 141.516 54.478C140.837 55.1557 140.026 55.7192 139.108 56.1543C138.199 56.5855 137.217 56.8842 136.193 57.0447C136.173 57.0487 136.151 57.0487 136.131 57.0487C136.037 57.0487 135.943 57.0146 135.87 56.9524C135.782 56.8762 135.73 56.7639 135.73 56.6476V53.3129C135.73 53.1224 135.864 52.958 136.053 52.9199C136.462 52.8377 136.858 52.6713 137.231 52.4226C137.611 52.1699 137.948 51.8632 138.231 51.5102C138.508 51.1633 138.719 50.7703 138.858 50.3412C138.956 50.0344 139.012 49.7216 139.028 49.4067H136.087C135.866 49.4067 135.686 49.2263 135.686 49.0057V41.8731C135.686 41.6525 135.866 41.4721 136.087 41.4721H143.369C143.589 41.4721 143.77 41.6525 143.77 41.8731V49.0057H143.768ZM166.253 49.0057C166.253 49.2263 166.072 49.4067 165.851 49.4067H158.57C158.349 49.4067 158.168 49.2263 158.168 49.0057V15.9335C158.168 15.7129 158.349 15.5325 158.57 15.5325H165.851C166.072 15.5325 166.253 15.7129 166.253 15.9335V49.0057ZM176.18 26.0278C175.841 26.9643 175.355 27.8025 174.739 28.5163C174.122 29.2302 173.376 29.8277 172.518 30.2969C171.657 30.7682 170.714 31.071 169.71 31.1993C169.694 31.2013 169.676 31.2033 169.66 31.2033C169.563 31.2033 169.469 31.1672 169.395 31.1031C169.308 31.0269 169.258 30.9166 169.258 30.8023V27.7443C169.258 27.5718 169.367 27.4195 169.529 27.3653C170.599 27.0004 171.336 26.463 171.719 25.7692C172.067 25.1375 172.263 24.3655 172.31 23.4692H169.66C169.439 23.4692 169.258 23.2887 169.258 23.0681V15.9355C169.258 15.715 169.439 15.5345 169.66 15.5345H176.244C176.465 15.5345 176.646 15.715 176.646 15.9355V23.022C176.678 24.0767 176.522 25.0934 176.182 26.0298L176.18 26.0278ZM216.105 49.0057C216.105 49.2263 215.924 49.4067 215.703 49.4067H209.118C208.898 49.4067 208.717 49.2263 208.717 49.0057V35.4343C208.717 34.6503 208.687 33.8983 208.627 33.1985C208.568 32.5448 208.414 31.9733 208.161 31.4981C207.916 31.0389 207.567 30.682 207.087 30.4072C206.609 30.1345 205.934 29.9962 205.083 29.9962C204.232 29.9962 203.551 30.1546 203.046 30.4694C202.534 30.7862 202.128 31.2073 201.837 31.7167C201.538 32.242 201.335 32.8516 201.235 33.5234C201.13 34.2232 201.076 34.9431 201.076 35.6649V49.0057C201.076 49.2263 200.895 49.4067 200.675 49.4067H194.09C193.869 49.4067 193.688 49.2263 193.688 49.0057V35.5727C193.688 34.8829 193.672 34.1811 193.642 33.4833C193.614 32.8356 193.489 32.232 193.275 31.6906C193.072 31.1792 192.743 30.7782 192.269 30.4654C191.797 30.1566 191.066 29.9982 190.101 29.9982C189.83 29.9982 189.45 30.0643 188.976 30.1927C188.523 30.317 188.073 30.5556 187.639 30.9045C187.21 31.2494 186.834 31.7628 186.523 32.4305C186.21 33.0983 186.051 34.0006 186.051 35.1095V49.0057C186.051 49.2263 185.871 49.4067 185.65 49.4067H179.065C178.844 49.4067 178.664 49.2263 178.664 49.0057V25.0573C178.664 24.8367 178.844 24.6563 179.065 24.6563H185.279C185.499 24.6563 185.68 24.8367 185.68 25.0573V27.245C186.443 26.3507 187.324 25.6248 188.306 25.0773C189.583 24.3675 191.06 24.0086 192.698 24.0086C194.337 24.0086 195.718 24.3174 197.019 24.927C198.175 25.4684 199.099 26.3727 199.771 27.62C200.46 26.7517 201.335 25.9657 202.379 25.2799C203.662 24.4377 205.194 24.0086 206.936 24.0086C208.233 24.0086 209.456 24.169 210.57 24.4878C211.704 24.8127 212.692 25.34 213.507 26.0539C214.324 26.7718 214.968 27.7202 215.424 28.8712C215.874 30.0102 216.101 31.3918 216.101 32.9799V49.0077L216.105 49.0057ZM257.888 43.9365C257.212 45.2058 256.29 46.2585 255.144 47.0646C254.014 47.8607 252.705 48.4563 251.259 48.8393C249.826 49.2163 248.332 49.4088 246.821 49.4088H230.774C230.553 49.4088 230.373 49.2283 230.373 49.0077V15.9335C230.373 15.7129 230.553 15.5325 230.774 15.5325H246.357C247.955 15.5325 249.434 15.6748 250.753 15.9576C252.096 16.2443 253.267 16.7256 254.234 17.3853C255.216 18.055 255.987 18.9574 256.525 20.0663C257.059 21.1672 257.33 22.5347 257.33 24.1329C257.33 25.8734 256.925 27.3533 256.124 28.5283C255.479 29.4728 254.582 30.2849 253.446 30.9507C255.126 31.5903 256.431 32.5769 257.33 33.8883C258.376 35.4163 258.908 37.2771 258.908 39.4187C258.908 41.1452 258.565 42.6652 257.888 43.9385V43.9365ZM276.717 30.7561C276.717 30.8765 276.663 30.9908 276.571 31.067C276.478 31.1432 276.356 31.1732 276.237 31.1512C275.936 31.091 275.575 31.0389 275.159 30.9948C274.744 30.9507 274.336 30.9266 273.951 30.9266C272.813 30.9266 271.841 31.1151 271.064 31.4901C270.293 31.861 269.665 32.3724 269.197 33.01C268.721 33.6577 268.378 34.4277 268.175 35.296C267.966 36.1883 267.862 37.1709 267.862 38.2156V49.0077C267.862 49.2283 267.681 49.4088 267.46 49.4088H260.876C260.655 49.4088 260.474 49.2283 260.474 49.0077V25.0593C260.474 24.8387 260.655 24.6583 260.876 24.6583H267.137C267.358 24.6583 267.539 24.8387 267.539 25.0593V28.0551C267.731 27.7563 267.942 27.4656 268.173 27.1889C268.721 26.5291 269.36 25.9556 270.07 25.4884C270.777 25.0232 271.544 24.6563 272.349 24.3996C273.158 24.1409 274.011 24.0106 274.882 24.0106C275.35 24.0106 275.872 24.0948 276.432 24.2592C276.603 24.3093 276.721 24.4658 276.721 24.6442V30.7582L276.717 30.7561ZM300.888 49.2002C300.818 49.3285 300.684 49.4067 300.537 49.4067H293.86C293.687 49.4067 293.535 49.2965 293.478 49.132C293.35 48.745 293.244 48.348 293.163 47.9489C293.135 47.8106 293.111 47.6702 293.089 47.5299C292.127 48.362 291.023 48.9716 289.803 49.3426C288.349 49.7837 286.841 50.0083 285.326 50.0083C284.151 50.0083 283.037 49.8639 282.017 49.5772C280.981 49.2864 280.06 48.8252 279.279 48.2076C278.492 47.586 277.868 46.7879 277.426 45.8395C276.986 44.895 276.761 43.762 276.761 42.4747C276.761 41.053 277.02 39.8599 277.528 38.9254C278.034 37.995 278.701 37.239 279.508 36.6796C280.299 36.1301 281.214 35.7151 282.228 35.4404C283.212 35.1757 284.218 34.9631 285.215 34.8067C286.213 34.6523 287.203 34.526 288.16 34.4337C289.096 34.3435 289.933 34.2071 290.652 34.0267C291.332 33.8562 291.872 33.6096 292.256 33.2948C292.587 33.0221 292.738 32.623 292.712 32.0716C292.712 31.4159 292.611 30.9126 292.414 30.5576C292.216 30.2007 291.959 29.93 291.632 29.7335C291.292 29.531 290.889 29.3926 290.433 29.3224C289.943 29.2482 289.409 29.2121 288.847 29.2121C287.642 29.2121 286.695 29.4648 286.026 29.9661C285.382 30.4493 284.999 31.2895 284.886 32.4626C284.866 32.6691 284.693 32.8255 284.487 32.8255H277.902C277.791 32.8255 277.685 32.7794 277.609 32.6992C277.532 32.619 277.494 32.5107 277.5 32.4004C277.597 30.7922 278.01 29.4307 278.727 28.3579C279.438 27.2931 280.355 26.4269 281.455 25.7792C282.539 25.1415 283.776 24.6823 285.127 24.4116C286.464 24.1449 287.823 24.0106 289.17 24.0106C290.385 24.0106 291.635 24.0968 292.888 24.2692C294.161 24.4437 295.339 24.7906 296.393 25.3019C297.469 25.8233 298.361 26.5572 299.045 27.4856C299.744 28.4321 300.097 29.6894 300.097 31.2214V43.6818C300.097 44.7426 300.16 45.7713 300.28 46.7358C300.395 47.6602 300.595 48.354 300.87 48.7972C300.949 48.9215 300.953 49.0759 300.88 49.2042L300.888 49.2002ZM316.092 49.4067H308.764C308.593 49.4067 308.439 49.2985 308.385 49.136L300.176 25.1876C300.134 25.0653 300.154 24.929 300.228 24.8247C300.304 24.7184 300.425 24.6563 300.555 24.6563H307.465C307.642 24.6563 307.796 24.7705 307.849 24.939L312.566 40.1988L317.284 24.939C317.336 24.7705 317.491 24.6563 317.668 24.6563H324.206C324.335 24.6563 324.457 24.7184 324.532 24.8227C324.608 24.927 324.628 25.0633 324.586 25.1856L316.471 49.134C316.417 49.2965 316.262 49.4067 316.092 49.4067ZM348.012 38.6567C347.998 38.8673 347.823 39.0317 347.611 39.0317H330.739C330.875 40.8324 331.371 42.1579 332.215 42.974C333.122 43.8523 334.463 44.2974 336.202 44.2974C337.442 44.2974 338.52 43.9866 339.404 43.373C340.279 42.7654 340.821 42.1298 341.01 41.4821C341.06 41.3117 341.216 41.1933 341.395 41.1933H347.193C347.321 41.1933 347.442 41.2555 347.518 41.3578C347.594 41.46 347.615 41.5944 347.576 41.7167C346.625 44.6664 345.133 46.81 343.146 48.0913C341.172 49.3626 338.759 50.0083 335.973 50.0083C334.043 50.0083 332.277 49.6955 330.723 49.0759C329.159 48.4543 327.816 47.5579 326.73 46.4069C325.646 45.2599 324.799 43.8743 324.21 42.2862C323.624 40.7061 323.327 38.9455 323.327 37.0526C323.327 35.1596 323.632 33.4893 324.234 31.9071C324.839 30.321 325.71 28.9274 326.824 27.7644C327.938 26.6033 329.285 25.6769 330.827 25.0112C332.371 24.3434 334.102 24.0046 335.973 24.0046C338.069 24.0046 339.926 24.4176 341.491 25.2318C343.053 26.0439 344.356 27.1508 345.364 28.5243C346.364 29.8859 347.095 31.46 347.538 33.2025C347.98 34.933 348.139 36.7678 348.014 38.6547L348.012 38.6567Z" fill="black"/>
<path d="M335.786 29.7676C334.804 29.7676 333.985 29.932 333.349 30.2569C332.709 30.5837 332.191 30.9928 331.811 31.47C331.428 31.9533 331.155 32.4666 331.002 33C330.892 33.383 330.811 33.7379 330.763 34.0628H340.536C340.231 32.7092 339.743 31.6585 339.085 30.9366C338.378 30.1626 337.27 29.7696 335.788 29.7696L335.786 29.7676Z" fill="black"/>
<path d="M54.2828 31.9874C53.8713 31.3357 53.3071 30.7943 52.6085 30.3812C51.9159 29.9722 51.0406 29.7656 50.0067 29.7656C48.9728 29.7656 48.1075 29.9722 47.431 30.3792C46.7464 30.7923 46.1903 31.3337 45.7788 31.9874C45.3592 32.6531 45.058 33.4332 44.8814 34.3075C44.7027 35.2038 44.6104 36.1282 44.6104 37.0546C44.6104 37.981 44.7007 38.8974 44.8814 39.7777C45.056 40.64 45.3592 41.422 45.7808 42.1018C46.1923 42.7675 46.7444 43.3069 47.427 43.7039C48.1035 44.097 48.9708 44.2975 50.0067 44.2975C51.0426 44.2975 51.9219 44.097 52.6125 43.7019C53.3071 43.3049 53.8672 42.7675 54.2788 42.1018C54.7004 41.42 55.0035 40.638 55.1782 39.7777C55.3569 38.8974 55.4492 37.981 55.4492 37.0546C55.4492 36.1282 55.3589 35.2038 55.1782 34.3075C55.0035 33.4352 54.7024 32.6552 54.2808 31.9874H54.2828Z" fill="black"/>
<path d="M104.755 38.6066C104.263 38.7009 103.745 38.7811 103.219 38.8433C102.697 38.9054 102.173 38.9816 101.665 39.0719C101.195 39.1601 100.719 39.2804 100.258 39.4288C99.822 39.5692 99.4386 39.7597 99.1214 39.9943C98.8142 40.2209 98.5653 40.5116 98.3786 40.8585C98.1939 41.1994 98.1016 41.6486 98.1016 42.198C98.1016 42.7154 98.1939 43.1505 98.3786 43.4894C98.5633 43.8323 98.8042 44.0929 99.1194 44.2895C99.4466 44.494 99.8361 44.6384 100.28 44.7206C100.748 44.8088 101.237 44.8529 101.735 44.8529C102.954 44.8529 103.897 44.6544 104.54 44.2634C105.188 43.8704 105.67 43.3971 105.975 42.8577C106.288 42.3043 106.481 41.7388 106.553 41.1753C106.628 40.5738 106.666 40.0925 106.666 39.7436V38.0352C106.505 38.1154 106.333 38.1856 106.15 38.2477C105.718 38.3921 105.249 38.5124 104.755 38.6087V38.6066Z" fill="black"/>
</svg>
