<svg width="82" height="48" viewBox="0 0 82 48" fill="none" xmlns="http://www.w3.org/2000/svg">
<path d="M64.7969 25.7505C64.1972 25.2904 63.3821 25.0592 62.3761 25.0592H57.2529V30.7404H62.2806C62.7433 30.7404 63.1912 30.6941 63.6147 30.6041C64.021 30.5164 64.3808 30.368 64.6868 30.1659C64.9854 29.9688 65.218 29.7059 65.3966 29.3627C65.5753 29.0219 65.6634 28.574 65.6634 28.0288C65.6634 26.9578 65.3722 26.1935 64.7969 25.7529V25.7505Z" fill="#191816"/>
<path d="M0 0V47.0294H82.0001V0H0ZM23.1142 34.9392C23.1142 35.1023 22.9845 35.2337 22.8229 35.2337H17.8515C17.69 35.2337 17.5603 35.1023 17.5603 34.9392V16.6104H11.0761C10.9146 16.6104 10.7848 16.4789 10.7848 16.3158V12.0902C10.7848 11.9271 10.9146 11.7957 11.0761 11.7957H29.6032C29.7648 11.7957 29.8945 11.9271 29.8945 12.0902V16.3158C29.8945 16.4789 29.7648 16.6104 29.6032 16.6104H23.1191V34.9392H23.1142ZM33.5539 35.0585C33.5539 35.8204 33.412 36.5336 33.1329 37.1786C32.8539 37.8188 32.4769 38.3811 32.0118 38.8533C31.5468 39.323 30.9936 39.7149 30.3621 40.0168C29.7379 40.3162 29.0672 40.5231 28.3671 40.6326C28.3524 40.6326 28.3378 40.635 28.3231 40.635C28.2545 40.635 28.186 40.6107 28.1321 40.5644C28.0661 40.5085 28.0293 40.4257 28.0293 40.3405V38.0378C28.0293 37.8967 28.1272 37.775 28.2643 37.7482C28.5409 37.6922 28.8102 37.5778 29.0623 37.4074C29.3193 37.2346 29.5494 37.0228 29.7403 36.7794C29.9288 36.5409 30.0708 36.2731 30.1662 35.9762C30.2323 35.7717 30.269 35.5648 30.2813 35.353H28.2912C28.1297 35.353 28 35.2216 28 35.0585V30.1294C28 29.9663 28.1297 29.8349 28.2912 29.8349H33.2627C33.4242 29.8349 33.5539 29.9663 33.5539 30.1294V35.0585ZM43.4698 34.9392C43.4698 35.1023 43.3401 35.2337 43.1785 35.2337H38.2071C38.0456 35.2337 37.9158 35.1023 37.9158 34.9392V12.0902C37.9158 11.9271 38.0456 11.7957 38.2071 11.7957H43.1785C43.3401 11.7957 43.4698 11.9271 43.4698 12.0902V34.9392ZM70.5201 31.4463C70.0574 32.3274 69.4259 33.0552 68.6402 33.6126C67.8667 34.1627 66.9708 34.5765 65.9819 34.8419C65.0004 35.1023 63.9796 35.2362 62.9467 35.2362H51.988C51.8265 35.2362 51.6968 35.1047 51.6968 34.9417V12.0902C51.6968 11.9271 51.8265 11.7957 51.988 11.7957H62.6285C63.7202 11.7957 64.7311 11.8955 65.6343 12.0902C66.5522 12.2898 67.3551 12.6209 68.0184 13.0785C68.6916 13.5434 69.2203 14.169 69.5899 14.9381C69.9571 15.7024 70.1406 16.6493 70.1406 17.7544C70.1406 18.9617 69.8616 19.9865 69.3133 20.8019C68.8776 21.4469 68.273 22.0044 67.5117 22.462C68.6451 22.905 69.5263 23.5841 70.1382 24.4847C70.8554 25.5436 71.2177 26.8336 71.2177 28.316C71.2177 29.5112 70.9827 30.5651 70.5201 31.4463Z" fill="#191816"/>
<path d="M64.0063 20.4611C64.5032 20.0887 64.7431 19.4875 64.7431 18.6185C64.7431 18.139 64.6599 17.7471 64.4959 17.4501C64.3294 17.1507 64.1165 16.9268 63.8399 16.7589C63.5559 16.586 63.2206 16.4643 62.8461 16.3962C62.452 16.3256 62.0383 16.2891 61.6148 16.2891H57.2529V21.0429H61.9967C62.8167 21.0429 63.4923 20.8482 64.0088 20.4611H64.0063Z" fill="#191816"/>
</svg>
