<svg width="20" height="20" viewBox="0 0 20 20" fill="none" xmlns="http://www.w3.org/2000/svg">
<circle cx="10" cy="10" r="10" fill="#0C0A0A"/>
<path d="M10.5 7C10.5 6.72386 10.2761 6.5 10 6.5C9.72386 6.5 9.5 6.72386 9.5 7L10 7L10.5 7ZM9.64645 13.3536C9.84171 13.5488 10.1583 13.5488 10.3536 13.3536L13.5355 10.1716C13.7308 9.97631 13.7308 9.65973 13.5355 9.46447C13.3403 9.2692 13.0237 9.2692 12.8284 9.46447L10 12.2929L7.17157 9.46447C6.97631 9.2692 6.65973 9.2692 6.46447 9.46447C6.2692 9.65973 6.2692 9.97631 6.46447 10.1716L9.64645 13.3536ZM10 7L9.5 7L9.5 13L10 13L10.5 13L10.5 7L10 7Z" fill="#F5F2E5"/>
</svg>
