<svg width="189" height="189" viewBox="0 0 189 189" fill="none" xmlns="http://www.w3.org/2000/svg">
<mask id="mask0_205_251" style="mask-type:luminance" maskUnits="userSpaceOnUse" x="21" y="21" width="147" height="147">
<path d="M75.4411 164.88C114.319 175.399 154.362 152.41 164.881 113.532C175.399 74.6549 152.41 34.6114 113.532 24.0928C74.655 13.5742 34.6115 36.5635 24.0929 75.4409C13.5742 114.318 36.5636 154.362 75.4411 164.88Z" fill="white"/>
</mask>
<g mask="url(#mask0_205_251)">
<path d="M75.4411 164.88C114.319 175.399 154.362 152.41 164.881 113.532C175.399 74.6549 152.41 34.6114 113.532 24.0928C74.655 13.5742 34.6115 36.5635 24.0929 75.4409C13.5742 114.318 36.5636 154.362 75.4411 164.88Z" fill="#6CC6FF"/>
<path d="M114.323 23.2112C113.953 23.5739 105.121 22.3519 105.744 23.8155C102.372 24.3511 102.811 25.1113 105.346 26.6336C104.374 28.3747 100.392 31.7472 103.07 33.6988C101.949 33.4466 100.435 33.4234 99.8822 34.6665C99.8476 36.9288 103.633 33.3885 101.466 36.9252C95.7121 37.9797 96.9542 45.3006 97.2812 49.6946L100.322 51.9824C101.985 50.8272 104.425 48.6977 104.028 46.3993C105.981 44.7198 109.841 42.898 112.48 43.5653C113.154 40.5119 118.319 40.8182 120.588 40.6382C122.148 32.7846 120.081 28.544 114.327 23.2122L114.323 23.2112Z" fill="white"/>
<path d="M119.541 45.8409C117.31 46.5874 119.175 47.194 120.013 48.1636C117.147 49.9528 121.934 51.435 122.841 52.5889L127.078 50.4404C126.176 49.5381 125.462 48.1264 126.202 46.9127C122.67 45.5621 123.816 48.0758 119.541 45.8409Z" fill="white"/>
<path d="M107.07 21.6139L100.943 23.9816C99.4565 23.779 97.0236 23.6685 96.2064 25.2605L91.7752 24.0616L95.3949 22.8457C93.0544 21.6562 90.2008 23.6186 87.6842 22.9547C80.8098 19.235 104.601 20.0202 107.07 21.6139Z" fill="white"/>
<path d="M91.499 25.0823C87.7111 24.3929 77.3865 30.1299 87.2978 29.7968C88.9984 32.4097 84.8451 36.2412 82.4502 36.901C81.02 36.5056 78.97 36.3925 78.146 37.9317C84.2577 37.8316 80.0897 42.0158 84.6287 43.711C84.2593 40.5878 84.0378 40.3708 86.8874 42.1268C87.7989 40.9552 87.7128 39.2802 86.8774 38.0988L88.0193 36.5777C90.0587 36.5732 89.6584 38.053 89.4194 39.5169C93.2083 37.5188 94.9081 36.5562 90.6473 33.6286C92.0593 33.5732 93.2279 32.4712 93.5235 31.1118C92.5478 30.1981 92.3125 29.4042 93.4885 28.5419C91.271 27.7296 89.8548 27.6437 91.5 25.0783L91.499 25.0823Z" fill="white"/>
<path d="M93.2041 25.5436C91.248 26.9039 93.2898 27.2355 94.3559 28.0505C96.1942 26.1998 94.8337 26.3157 93.2041 25.5436Z" fill="white"/>
<path d="M84.3696 21.6928C85.4955 23.8402 80.0911 24.0722 79.1717 24.6769C86.1318 24.9253 85.1433 26.8998 79.0226 27.9273C79.09 29.4359 78.3319 31.2647 77.1432 32.1745L81.8167 29.7788C84.1659 31.391 83.2539 31.7642 81.5744 33.3734C75.3046 34.764 62.3355 37.6412 60.1956 44.7817C69.0247 52.7329 59.7143 52.3199 65.2032 56.013C66.7736 45.7674 70.1787 55.5928 71.7502 45.3432C75.7756 45.8294 74.7634 38.7575 79.1146 41.1152C83.164 45.4675 76.9824 46.3597 79.8111 49.3542L84.3284 46.186C84.254 47.9832 85.1397 52.7449 83.3196 53.9636C84.9673 55.6578 87.734 57.4849 86.0276 60.1823C82.9917 61.3905 77.0422 61.0632 73.9497 60.2052C66.2811 63.0304 66.5574 64.74 74.3529 61.4141C78.6143 63.7432 72.7667 62.3649 74.2708 65.7823C75.6237 68.1738 78.4051 63.9201 79.2906 67.5057C77.201 67.5857 73.5213 68.3013 72.0471 69.9364C70.218 68.4734 71.8263 68.0847 73.1249 67.3024C72.2699 65.5977 70.0262 66.6084 69.0049 67.6526C66.8626 67.5825 65.8514 69.1857 65.172 71.006C61.5752 70.207 58.6078 74.3636 58.6191 77.6489C52.0389 80.3907 50.8207 80.0908 51.4848 87.7903C47.984 89.1318 50.9706 83.3032 49.4573 81.7558C48.489 82.1647 47.7075 81.1295 47.2557 80.4298C46.1417 80.294 44.6731 79.8839 44.7488 81.5816C41.3139 80.3253 41.7934 79.4318 38.1509 81.6266C38.2148 84.9686 34.3377 91.5456 39.1345 92.8689C40.8534 93.1386 41.5829 91.7607 42.0107 90.3521C47.4926 90.226 43.4336 93.3951 42.58 96.3615C43.6069 96.6309 45.6442 97.199 46.671 97.4684C45.806 100.258 45.3185 105.748 49.8744 104.556C51.2567 106.399 51.6179 105.864 52.8765 104.272C54.4481 105.322 55.65 103.579 56.9966 103.922L55.3933 107.149C57.6369 108.775 57.1346 106.77 57.7441 105.224C59.0318 104.906 59.4521 105.644 59.5124 106.802C62.3577 106.455 61.0479 109.052 64.0357 107.661C65.468 108.817 67.3264 111.757 67.9485 113.475C71.3786 113.227 75.5174 117.532 73.6307 120.864C75.3629 121.838 78.5306 124.474 79.9584 125.867C81.2732 126.987 87.8331 129.891 85.8247 132.575C82.4429 133.931 78.884 138.752 77.7617 142.1C72.0885 142.556 70.6832 143.968 68.887 149.21C65.3912 147.504 65.5819 148.133 66.8766 151.226C65.1494 151.489 62.8144 152.131 65.0261 154.016C64.6294 155.153 64.9464 156.869 66.3342 157.296C65.9764 158.838 69.0487 160.743 69.9347 161.565C59.5472 159.672 58.0157 142.184 57.1165 133.219C53.705 130.746 49.3244 123.459 47.6106 119.671C50.811 114.826 46.4522 117.973 48.8386 113.782L51.0332 111.085C51.0766 109.45 50.6751 104.484 48.2052 106.66C45.7848 105.436 43.336 102.027 42.8643 99.3598C41.2061 98.6776 38.4334 97.4688 38.4901 95.2507C36.2473 95.646 33.9996 93.2035 32.907 91.5449L31.501 84.5788C31.4216 83.8524 31.6089 74.481 30.1481 74.7015L30.4472 85.7586C29.0293 84.9886 29.2136 81.2 29.1043 79.9093C28.4465 76.7378 29.559 72.0921 29.4857 69.0362C30.8954 61.8638 37.0304 54.5687 39.231 47.8947C47.7648 34.3699 54.9188 28.2675 70.9606 23.9203C69.5922 24.913 69.2702 24.9575 70.7474 26.0578L67.0066 29.071C67.8494 30.7427 69.5676 29.4455 70.6944 28.969C72.4953 30.866 75.8836 30.976 77.6325 29.0161C77.9022 26.3716 80.6869 26.4371 82.7383 26.3722L76.85 25.1443C78.3615 22.7593 81.4913 21.2198 84.3696 21.6928Z" fill="white"/>
<path d="M78.02 22.1701C76.8267 22.6412 75.9018 24.7731 75.5482 25.8918C78.0444 26.2232 77.4798 26.8815 76.6079 28.7389C71.656 30.7196 73.5472 26.068 69.7629 28.3476C70.6799 27.4535 72.3745 25.6318 71.9826 24.1925C73.3806 22.9487 76.0949 21.611 78.0171 22.165L78.02 22.1701Z" fill="white"/>
<path d="M46.7195 90.5263C47.0909 91.4293 48.6867 90.6 49.2894 90.4913C50.3488 92.4764 52.9105 95.1397 55.2768 95.402C57.9323 94.3286 53.1993 93.2561 52.76 92.5258C51.9913 89.9527 48.8888 88.9902 46.7156 90.5253L46.7195 90.5263Z" fill="white"/>
<path d="M56.7339 95.431C58.7074 94.7124 62.2281 97.1426 60.5196 99.0157C56.9378 96.1995 60.1113 100.65 54.6313 97.7877C55.0524 96.4197 56.0125 97.2655 56.8609 97.6606L56.7339 95.431Z" fill="white"/>
<path d="M85.6574 61.5512C83.378 60.701 81.1397 63.6536 79.9351 65.1238C80.6425 67.2175 81.6742 66.7154 83.3456 66.0466C81.8959 70.1807 84.1455 69.1164 85.1429 66.1677L85.337 69.5152C87.7327 68.3036 89.4632 67.6041 88.5183 64.5205C86.4891 65.084 83.8743 63.6844 85.6653 61.5534L85.6574 61.5512Z" fill="white"/>
<path d="M153.897 50.0152C153 52.6219 154.386 55.7865 156.235 57.5989C155.991 62.1738 156.742 63.4301 153.296 58.9989C152.907 57.6113 150.52 55.543 153.786 55.8405C152.126 52.3684 147.128 47.3475 143.789 45.4547C140.424 48.8838 145.377 57.6503 139.916 59.7693C140.598 62.1448 141.248 71.9679 144.606 65.4285C145.624 66.6721 146.444 74.7833 149.359 72.2006C147.247 66.4787 151.545 68.72 147.574 62.5715L148.305 55.8185C150.482 56.106 150.464 58.3388 150.449 60.0586C150.287 63.4669 150.41 68.7399 155.11 67.1709C155.463 69.385 155.162 69.601 153.008 69.5277C152.933 71.3418 156.44 74.9231 152.241 73.7107C152.645 78.9663 147.983 75.7813 144.842 75.3689C144.392 73.7525 146.681 67.7563 142.818 69.3354C142.425 71.1951 144.752 76.1258 141.003 74.6954C140.693 81.0995 128.596 76.6081 134.514 82.4511L133.563 87.3147C129.598 86.9977 125.747 83.3571 126.228 90.0857C123.838 93.8974 127.217 92.7863 128.003 95.6868C129.162 95.2786 131.506 95.798 132.619 96.2052C134.066 95.2507 135.033 93.3384 134.59 91.6178C136.645 91.6812 138.158 91.2669 138.579 89.0369C139.872 89.9855 141.926 90.0061 143.288 89.2111C144.558 91.7968 148.355 96.4078 147.459 99.4857C148.641 100.421 148.178 97.5955 148.444 97.192C149.172 96.0258 149.056 97.2555 149.373 97.8084C150.834 96.5689 148.847 95.4071 148.065 94.529C141.886 81.741 152.312 92.1579 151.078 98.2698C151.041 99.7585 150.537 102.233 151.925 103.255C151.769 102.231 152.055 101.502 153.159 101.393C152.466 99.6855 152.267 96.9822 154.854 97.8265C154.782 99.238 155.721 98.0271 156.311 97.8555C155.812 96.625 156.595 94.4208 157.17 93.3322C157.638 92.3082 157.968 90.3508 159.521 91.4078C159.533 92.2562 158.447 94.7309 160.148 94.5032C160.129 93.1605 160.452 91.4814 162.095 91.3739C163.251 92.1836 161.316 93.6686 160.925 94.3481C161.613 95.5873 162.545 98.2132 162.792 99.609C161.972 101.633 160.281 99.6471 159.818 98.4391C158.237 99.0728 155.994 98.7761 154.649 99.9662C154.96 105.91 154.253 102.636 157.017 106.093C157.808 105.364 158.594 104.643 159.246 105.966C157.993 107.147 157.754 115.404 154.952 111.024C152.607 112.424 150.84 107.313 148.596 107.475C147.069 111.019 147.621 110.595 144.724 108.257C145.712 106.444 142.579 104.683 141.556 103.74C141.304 102.929 141.77 102.197 142.45 101.786C142.865 100.188 143.67 99.1274 141.39 98.9393C138.024 98.1179 130.557 99.2905 128.16 96.4554C127.259 97.494 125.037 98.8501 123.735 99.2834C123.363 102.732 120.374 104.047 117.46 104.902C111.931 108.259 110.686 114.979 109.874 120.776C111.373 124.825 111.976 129.264 117.416 129.403C119.029 129.784 125.684 129.245 125.07 132.204C130.212 133.051 125.039 135.958 124.186 138.185C125.833 144.168 119.932 147.993 115.63 150.867C115.292 154.156 108.412 158.587 106.11 160.363C112.832 162.165 120.019 157.808 125.581 154.655C130.015 154.212 135.659 149.926 138.075 146.329L148.131 140.269C159.511 127.76 146.076 141.573 151.082 129.361L153.175 122.976C153.766 121.247 152.792 113.013 155.821 114.546C157.004 117.533 150.493 130.879 153.411 132.917L160.177 124.136C160.103 122.29 159.781 116.106 161.802 115.43C161.247 117.593 161.564 121.632 162.504 123.666L169.374 105.037C168.99 88.3439 168.349 61.2415 153.901 49.9994L153.897 50.0152Z" fill="white"/>
<path d="M133.173 63.0657C135.504 63.5053 135.271 63.7226 133.985 65.4805C138.453 65.8062 133.015 68.3601 136.225 69.3775C136.622 70.4231 137.134 74.8078 138.777 74.8236L137.699 77.4575C136.207 77.0112 133.503 76.9462 132.126 77.7797C130.943 76.1731 133.212 76.2476 134.137 75.7633L132.367 74.1891C132.981 73.1151 133.05 71.0871 134.626 72.6049C135.901 68.364 129.811 68.8055 133.181 63.0678L133.173 63.0657Z" fill="white"/>
<path d="M128.754 69.9207C130.128 67.8084 130.811 68.3118 132.441 69.8226C132.192 70.7405 131.677 72.6436 131.426 73.5734C130.446 73.6778 128.371 74.3647 127.923 72.9909C128.722 72.2347 129.289 70.9869 128.753 69.9246L128.754 69.9207Z" fill="white"/>
<path d="M143.078 91.3537C141.752 91.7338 142.083 93.1611 143.205 93.5833C143.099 93.3636 143.779 91.1316 143.078 91.3537Z" fill="white"/>
<path d="M141.752 93.5554C143.87 93.8865 143.451 98.5883 141.261 96.7176C141.557 95.9697 141.746 94.3606 141.752 93.5554Z" fill="white"/>
<path d="M144.736 98.7532C143.437 99.6628 146.367 100.337 146.136 101.692C146.794 99.7135 147.071 99.0497 144.736 98.7532Z" fill="white"/>
<path d="M75.1957 35.3077C76.0672 35.1783 76.0437 36.5052 76.1914 37.042C76.7058 38.0601 76.5193 38.4512 75.3898 38.6552C74.915 36.3612 73.1832 38.4149 72.0463 38.8503C69.8148 37.1638 74.4616 36.1536 75.1986 35.3127L75.1957 35.3077Z" fill="white"/>
<path d="M72.3597 40.3915C73.1561 39.5667 74.0758 39.1021 75.0216 40.0162C74.3601 40.3425 73.0645 40.8624 72.3597 40.3915Z" fill="white"/>
</g>
<path d="M74.3662 168.853C33.3611 157.758 9.02615 115.371 20.1204 74.3661C31.2147 33.3611 73.602 9.02615 114.607 20.1204C155.612 31.2147 179.947 73.602 168.853 114.607C157.758 155.612 115.371 179.947 74.3662 168.853ZM113.322 24.8682C74.9327 14.4815 35.2538 37.2649 24.8682 75.6507C14.4826 114.037 37.2649 153.719 75.6507 164.105C114.037 174.491 153.719 151.708 164.105 113.322C174.491 74.9366 151.708 35.2538 113.322 24.8682Z" fill="black"/>
<path d="M89.5401 114.243C67.8941 108.387 55.0485 86.0116 60.905 64.3657C61.2593 63.0561 62.6115 62.2797 63.9211 62.634C65.2307 62.9884 66.0071 64.3406 65.6527 65.6502C60.5049 84.677 71.7979 104.347 90.8247 109.495C109.851 114.643 129.521 103.354 134.67 84.3234C135.024 83.0138 136.376 82.2374 137.686 82.5917C138.995 82.9461 139.772 84.2983 139.417 85.6079C133.561 107.254 111.186 120.1 89.5401 114.243Z" fill="black"/>
<path d="M62.6897 67.3579C58.7134 66.2821 55.146 63.6949 52.9382 59.8493C52.2629 58.673 52.6697 57.1695 53.846 56.4942C55.0223 55.8188 56.5257 56.2256 57.205 57.403C60.27 62.7416 67.1068 64.5914 72.4454 61.5264C73.6217 60.8511 75.1252 61.2579 75.8045 62.4352C76.4798 63.6115 76.073 65.115 74.8967 65.7903C71.0511 67.9982 66.6659 68.4337 62.6897 67.3579Z" fill="black"/>
<path d="M136.469 87.3875C132.493 86.3117 128.925 83.7245 126.718 79.8789C126.042 78.7026 126.449 77.1991 127.625 76.5238C128.802 75.8484 130.305 76.2552 130.984 77.4326C134.049 82.7712 140.886 84.621 146.225 81.556C147.401 80.8807 148.904 81.2875 149.584 82.4648C150.259 83.6411 149.852 85.1446 148.675 85.8239C144.829 88.0317 140.444 88.4673 136.468 87.3915L136.469 87.3875Z" fill="black"/>
<path d="M82.6508 83.1615C86.6036 84.231 92.2039 76.2429 95.1593 65.3195C98.1147 54.3962 97.3061 44.674 93.3532 43.6046C89.4004 42.5351 83.8001 50.5232 80.8447 61.4466C77.8893 72.3699 78.6979 82.0921 82.6508 83.1615Z" fill="black"/>
<path d="M111.28 90.9075C115.233 91.9769 120.833 83.9888 123.788 73.0654C126.744 62.1421 125.935 52.42 121.982 51.3505C118.03 50.281 112.429 58.2691 109.474 69.1925C106.518 80.1158 107.327 89.838 111.28 90.9075Z" fill="black"/>
</svg>
