<svg width="144" height="166" viewBox="0 0 144 166" fill="none" xmlns="http://www.w3.org/2000/svg">
<g clip-path="url(#clip0_669_461)">
<path d="M10.4125 2.39038C5.96848 2.39038 2.36816 6.02437 2.36816 10.5099V96.2671H2.39322C3.60029 129.302 54.6479 156.118 68.5396 162.813C70.7282 163.867 73.2718 163.867 75.4604 162.813C89.3521 156.118 140.4 129.302 141.607 96.2671H141.632V10.5099C141.632 6.02437 138.031 2.39038 133.587 2.39038H10.4125Z" fill="#F5CA16"/>
<path d="M71.9979 166C70.4692 166 68.9406 165.659 67.5163 164.971C52.0542 157.518 1.62474 130.626 0.041767 96.7097C0.0167068 96.5663 0 96.4146 0 96.2628V10.5099C0 4.71323 4.66955 0 10.4125 0H133.587C139.33 0 144 4.71323 144 10.5099V96.267C144 96.4188 143.987 96.5663 143.958 96.7139C142.375 130.63 91.9458 157.518 76.4795 164.971C75.0553 165.659 73.5266 166 71.9979 166ZM4.74055 95.9213C4.75308 96.0056 4.76144 96.09 4.76144 96.1785C5.02457 103.328 7.86472 110.757 13.2109 118.265C17.7593 124.652 24.1413 131.136 32.1815 137.539C46.7999 149.188 63.1934 157.585 69.5629 160.654C71.1125 161.401 72.8917 161.401 74.4413 160.654C80.8107 157.585 97.2043 149.188 111.823 137.539C119.863 131.136 126.245 124.648 130.793 118.265C136.135 110.761 138.98 103.328 139.243 96.1785C139.243 96.09 139.255 96.0056 139.264 95.9213V10.5099C139.264 7.3523 136.72 4.78489 133.592 4.78489H10.4125C7.28416 4.78489 4.74055 7.3523 4.74055 10.5099V95.9213Z" fill="black"/>
<path d="M71.8601 43.0641C84.0396 43.0641 93.9131 36.0314 93.9131 27.3561C93.9131 18.6809 84.0396 11.6482 71.8601 11.6482C59.6806 11.6482 49.8071 18.6809 49.8071 27.3561C49.8071 36.0314 59.6806 43.0641 71.8601 43.0641Z" fill="white"/>
<path d="M71.8602 44.2571C65.7288 44.2571 59.9483 42.5455 55.5836 39.4385C51.0937 36.2429 48.6211 31.9513 48.6211 27.3561C48.6211 22.7609 51.0937 18.4692 55.5836 15.2737C59.9483 12.1667 65.7288 10.4551 71.8602 10.4551C77.9916 10.4551 83.7722 12.1667 88.1368 15.2737C92.6268 18.4692 95.0994 22.7609 95.0994 27.3561C95.0994 31.9513 92.6268 36.2429 88.1368 39.4385C83.7722 42.5455 77.9916 44.2571 71.8602 44.2571ZM71.8602 12.8412C60.3534 12.8412 50.9935 19.3503 50.9935 27.3519C50.9935 35.3534 60.3534 41.8625 71.8602 41.8625C83.367 41.8625 92.727 35.3534 92.727 27.3519C92.727 19.3503 83.367 12.8412 71.8602 12.8412Z" fill="black"/>
<path d="M22.6669 22.8452H51.0893V27.5289H19.2295V26.319C19.2295 24.4008 20.7707 22.8452 22.6711 22.8452H22.6669Z" fill="black"/>
<path d="M92.7144 22.8452H121.137C123.037 22.8452 124.578 24.4008 124.578 26.319V27.5289H92.7144V22.8452Z" fill="black"/>
<path d="M56.0057 41.6731C63.5256 41.6731 69.6217 35.5199 69.6217 27.9297C69.6217 20.3394 63.5256 14.1863 56.0057 14.1863C48.4858 14.1863 42.3896 20.3394 42.3896 27.9297C42.3896 35.5199 48.4858 41.6731 56.0057 41.6731Z" fill="#F5CA16"/>
<path d="M56.0056 42.8702C47.8443 42.8702 41.2075 36.1714 41.2075 27.9338C41.2075 19.6962 47.8443 12.9973 56.0056 12.9973C64.1668 12.9973 70.8036 19.6962 70.8036 27.9338C70.8036 36.1714 64.1668 42.8702 56.0056 42.8702ZM56.0056 15.3877C49.1516 15.3877 43.5757 21.0157 43.5757 27.9338C43.5757 34.8518 49.1516 40.4799 56.0056 40.4799C62.8595 40.4799 68.4354 34.8518 68.4354 27.9338C68.4354 21.0157 62.8595 15.3877 56.0056 15.3877Z" fill="black"/>
<path d="M87.7152 41.6731C95.2351 41.6731 101.331 35.5199 101.331 27.9297C101.331 20.3394 95.2351 14.1863 87.7152 14.1863C80.1952 14.1863 74.0991 20.3394 74.0991 27.9297C74.0991 35.5199 80.1952 41.6731 87.7152 41.6731Z" fill="#F5CA16"/>
<path d="M87.715 42.8702C79.5538 42.8702 72.917 36.1714 72.917 27.9338C72.917 19.6962 79.5538 12.9973 87.715 12.9973C95.8763 12.9973 102.513 19.6962 102.513 27.9338C102.513 36.1714 95.8763 42.8702 87.715 42.8702ZM87.715 15.3877C80.8611 15.3877 75.2852 21.0157 75.2852 27.9338C75.2852 34.8518 80.8611 40.4799 87.715 40.4799C94.569 40.4799 100.145 34.8518 100.145 27.9338C100.145 21.0157 94.569 15.3877 87.715 15.3877Z" fill="black"/>
<path d="M51.5653 68.3166C62.7714 68.3166 71.8557 59.1473 71.8557 47.8364C71.8557 36.5255 62.7714 27.3562 51.5653 27.3562C40.3592 27.3562 31.2749 36.5255 31.2749 47.8364C31.2749 59.1473 40.3592 68.3166 51.5653 68.3166Z" fill="#F5CA16"/>
<path d="M51.5654 69.5139C39.7245 69.5139 30.0889 59.7881 30.0889 47.8364C30.0889 35.8847 39.7245 26.1589 51.5654 26.1589C63.4064 26.1589 73.042 35.8847 73.042 47.8364C73.042 59.7881 63.4064 69.5139 51.5654 69.5139ZM51.5654 28.5493C41.0276 28.5493 32.4571 37.2 32.4571 47.8364C32.4571 58.4728 41.0276 67.1235 51.5654 67.1235C62.1033 67.1235 70.6738 58.4728 70.6738 47.8364C70.6738 37.2 62.1033 28.5493 51.5654 28.5493Z" fill="black"/>
<path d="M54.6726 68.3165C64.1164 68.3165 71.772 60.5893 71.772 51.0572C71.772 41.5251 64.1164 33.7979 54.6726 33.7979C45.2289 33.7979 37.5732 41.5251 37.5732 51.0572C37.5732 60.5893 45.2289 68.3165 54.6726 68.3165Z" fill="white"/>
<path d="M54.6728 69.5138C44.5902 69.5138 36.3872 61.2341 36.3872 51.0572C36.3872 40.8803 44.5902 32.6006 54.6728 32.6006C64.7553 32.6006 72.9584 40.8803 72.9584 51.0572C72.9584 61.2341 64.7553 69.5138 54.6728 69.5138ZM54.6728 34.9951C45.8975 34.9951 38.7554 42.1999 38.7554 51.0614C38.7554 59.923 45.8934 67.1277 54.6728 67.1277C63.4522 67.1277 70.5902 59.923 70.5902 51.0614C70.5902 42.1999 63.4522 34.9951 54.6728 34.9951Z" fill="black"/>
<path d="M92.1503 68.3166C103.356 68.3166 112.441 59.1473 112.441 47.8364C112.441 36.5255 103.356 27.3562 92.1503 27.3562C80.9442 27.3562 71.8599 36.5255 71.8599 47.8364C71.8599 59.1473 80.9442 68.3166 92.1503 68.3166Z" fill="#F5CA16"/>
<path d="M92.1504 69.5139C80.3095 69.5139 70.6738 59.7881 70.6738 47.8364C70.6738 35.8847 80.3095 26.1589 92.1504 26.1589C103.991 26.1589 113.627 35.8847 113.627 47.8364C113.627 59.7881 103.991 69.5139 92.1504 69.5139ZM92.1504 28.5493C81.6126 28.5493 73.042 37.2 73.042 47.8364C73.042 58.4728 81.6126 67.1235 92.1504 67.1235C102.688 67.1235 111.259 58.4728 111.259 47.8364C111.259 37.2 102.688 28.5493 92.1504 28.5493Z" fill="black"/>
<path d="M89.0472 68.3165C98.4909 68.3165 106.147 60.5893 106.147 51.0572C106.147 41.5251 98.4909 33.7979 89.0472 33.7979C79.6034 33.7979 71.9478 41.5251 71.9478 51.0572C71.9478 60.5893 79.6034 68.3165 89.0472 68.3165Z" fill="white"/>
<path d="M89.0473 69.5138C78.9648 69.5138 70.7617 61.2341 70.7617 51.0572C70.7617 40.8803 78.9648 32.6006 89.0473 32.6006C99.1298 32.6006 107.333 40.8803 107.333 51.0572C107.333 61.2341 99.1298 69.5138 89.0473 69.5138ZM89.0473 34.9951C80.2721 34.9951 73.1299 42.1999 73.1299 51.0614C73.1299 59.923 80.2679 67.1277 89.0473 67.1277C97.8267 67.1277 104.965 59.923 104.965 51.0614C104.965 42.1999 97.8267 34.9951 89.0473 34.9951Z" fill="black"/>
<path d="M67.6585 42.5963L56.5067 29.6075C54.0425 26.7366 56.8868 23.0225 61.5438 23.0225H82.1767C86.8337 23.0225 89.678 26.7366 87.2138 29.6075L76.062 42.5963C73.8442 45.1763 69.8763 45.1763 67.6585 42.5963Z" fill="#6CC6FF"/>
<path d="M71.8601 45.7285C69.9012 45.7285 68.0468 44.8727 66.7645 43.3803L55.6127 30.3916C54.3639 28.9371 54.0715 27.1539 54.8192 25.5055C55.8299 23.2711 58.4696 21.8293 61.5437 21.8293H82.1765C85.2506 21.8293 87.8944 23.2711 88.9052 25.5055C89.6528 27.1539 89.3605 28.9371 88.1116 30.3916L76.9598 43.3803C75.6776 44.8727 73.819 45.7285 71.8643 45.7285H71.8601ZM61.5437 24.2155C59.0961 24.2155 57.4839 25.3622 56.9743 26.4962C56.6193 27.2803 56.7697 28.0855 57.4004 28.8233L68.5521 41.8121C69.3833 42.7817 70.5904 43.334 71.8559 43.334C73.1215 43.334 74.3285 42.7775 75.1597 41.8121L86.3115 28.8233C86.9463 28.0855 87.0925 27.2803 86.7417 26.4962C86.2279 25.3622 84.6157 24.2155 82.1724 24.2155H61.5395H61.5437Z" fill="black"/>
<path d="M103.01 78.2234C103.01 61.4405 89.5314 47.8362 72.904 47.8362C56.2765 47.8362 42.7983 61.4405 42.7983 78.2234C42.7983 80.4915 43.0448 82.6963 43.5126 84.8211L53.9084 131.662C53.9084 131.662 57.0868 148.483 71.8598 148.483C89.001 148.483 91.9038 131.662 91.9038 131.662L102.3 84.8211C102.767 82.6963 103.014 80.4873 103.014 78.2234H103.01Z" fill="black"/>
<path d="M71.8598 149.086C65.6032 149.086 60.4115 146.08 56.8446 140.398C54.1757 136.144 53.3613 131.958 53.3278 131.781L42.9362 84.956C42.9362 84.956 42.932 84.9265 42.9279 84.9096C42.4517 82.7216 42.2095 80.4704 42.2095 78.2234C42.2095 61.1369 55.98 47.2375 72.9082 47.2375C89.8364 47.2375 103.607 61.1369 103.607 78.2234C103.607 80.4746 103.365 82.7259 102.889 84.9138C102.889 84.9265 102.884 84.9391 102.88 84.9518L92.4844 131.781C92.4259 132.109 91.649 136.232 88.7964 140.41C86.0982 144.365 80.9692 149.078 71.8598 149.078V149.086ZM44.0973 84.7368L54.4848 131.536C54.4973 131.595 55.3034 135.726 57.8637 139.786C61.251 145.161 65.9624 147.889 71.8598 147.889C78.7472 147.889 84.1101 145.157 87.7981 139.774C90.5715 135.722 91.3149 131.603 91.3191 131.565C91.3191 131.557 91.3191 131.549 91.3233 131.536L101.711 84.7283C101.711 84.7283 101.711 84.7073 101.719 84.6946C102.183 82.5783 102.421 80.403 102.421 78.2234C102.421 61.7946 89.1806 48.4306 72.904 48.4306C56.6274 48.4306 43.3873 61.7946 43.3873 78.2234C43.3873 80.3988 43.6212 82.5741 44.089 84.6946C44.089 84.7073 44.0932 84.7241 44.0973 84.7368Z" fill="black"/>
<path d="M71.8601 144.107C67.3242 144.107 63.8157 142.088 61.1343 137.927C58.9708 134.576 58.219 131.076 58.1688 130.84L47.748 83.8768C47.3428 82.0261 47.1382 80.1247 47.1382 78.2234C47.1382 63.8814 58.6993 52.2122 72.9084 52.2122C87.1175 52.2122 98.6786 63.8814 98.6786 78.2234C98.6786 80.1247 98.474 82.0261 98.0688 83.8768L87.6396 130.895C87.6104 131.039 86.9254 134.504 84.5865 137.822C81.6419 141.991 77.3649 144.107 71.8684 144.107H71.8601Z" fill="#F5CA16"/>
<path d="M71.8602 144.706C67.1071 144.706 63.4358 142.598 60.6374 138.256C58.4404 134.85 57.6719 131.351 57.5884 130.963L47.1675 84.0075C46.754 82.1146 46.541 80.1669 46.541 78.2234C46.541 63.5526 58.3652 51.6135 72.9043 51.6135C87.4434 51.6135 99.2676 63.5484 99.2676 78.2234C99.2676 80.1711 99.0588 82.1146 98.6411 84.0033L88.2119 131.026C88.1869 131.161 87.481 134.74 85.0627 138.167C82.0012 142.505 77.5613 144.702 71.8643 144.702L71.8602 144.706ZM72.9043 52.8108C59.021 52.8108 47.7272 64.2102 47.7272 78.2234C47.7272 80.0826 47.9277 81.9375 48.3245 83.7461L58.7453 130.71C58.7787 130.861 59.5138 134.323 61.6272 137.603C64.1917 141.578 67.5373 143.509 71.8602 143.509C77.152 143.509 81.2703 141.477 84.0937 137.476C86.3658 134.255 87.0216 130.925 87.0508 130.781L97.4842 83.7461C97.881 81.9417 98.0815 80.0826 98.0815 78.2234C98.0815 64.2102 86.7877 52.8108 72.9043 52.8108Z" fill="black"/>
<path d="M64.8011 36.829C67.3362 36.829 69.3913 34.7547 69.3913 32.1959C69.3913 29.6371 67.3362 27.5627 64.8011 27.5627C62.266 27.5627 60.2109 29.6371 60.2109 32.1959C60.2109 34.7547 62.266 36.829 64.8011 36.829Z" fill="white"/>
<path d="M64.8013 38.0263C61.6144 38.0263 59.0249 35.4125 59.0249 32.1959C59.0249 28.9793 61.6144 26.3655 64.8013 26.3655C67.9881 26.3655 70.5776 28.9793 70.5776 32.1959C70.5776 35.4125 67.9881 38.0263 64.8013 38.0263ZM64.8013 28.7558C62.9218 28.7558 61.3931 30.2988 61.3931 32.1959C61.3931 34.093 62.9218 35.6317 64.8013 35.6317C66.6808 35.6317 68.2053 34.0888 68.2053 32.1959C68.2053 30.303 66.6766 28.7558 64.8013 28.7558Z" fill="black"/>
<mask id="mask0_669_461" style="mask-type:luminance" maskUnits="userSpaceOnUse" x="47" y="52" width="52" height="93">
<path d="M71.8601 144.107C67.3242 144.107 63.8157 142.088 61.1343 137.927C58.9708 134.576 58.219 131.076 58.1688 130.84L47.748 83.8768C47.3428 82.0261 47.1382 80.1247 47.1382 78.2234C47.1382 63.8814 58.6993 52.2122 72.9084 52.2122C87.1175 52.2122 98.6786 63.8814 98.6786 78.2234C98.6786 80.1247 98.474 82.0261 98.0688 83.8768L87.6396 130.895C87.6104 131.039 86.9254 134.504 84.5865 137.822C81.6419 141.991 77.3649 144.107 71.8684 144.107H71.8601Z" fill="white"/>
</mask>
<g mask="url(#mask0_669_461)">
<path d="M38.7139 86.3431C38.7139 66.8536 53.9463 51.0571 72.7414 51.0571C91.5366 51.0571 106.769 66.8536 106.769 86.3431" fill="#6CC6FF"/>
<path d="M106.765 87.5404C106.109 87.5404 105.579 87.005 105.579 86.3431C105.579 67.545 90.8473 52.2544 72.7372 52.2544C54.627 52.2544 39.8958 67.5492 39.8958 86.3431C39.8958 87.005 39.3654 87.5404 38.7096 87.5404C38.0539 87.5404 37.5234 87.005 37.5234 86.3431C37.5234 66.2255 53.3197 49.8599 72.733 49.8599C92.1463 49.8599 107.943 66.2255 107.943 86.3431C107.943 87.005 107.412 87.5404 106.756 87.5404H106.765Z" fill="black"/>
<path d="M44.916 85.795C44.916 70.6351 57.3709 58.3462 72.737 58.3462C88.1031 58.3462 100.558 70.6351 100.558 85.795" fill="#FBBAE5"/>
<path d="M100.558 86.9881C99.9024 86.9881 99.3719 86.4527 99.3719 85.7908C99.3719 71.3139 87.4224 59.5393 72.7371 59.5393C58.0519 59.5393 46.1023 71.3139 46.1023 85.7908C46.1023 86.4527 45.5719 86.9881 44.9162 86.9881C44.2604 86.9881 43.73 86.4527 43.73 85.7908C43.73 69.9986 56.7404 57.1489 72.7371 57.1489C88.7339 57.1489 101.744 69.9986 101.744 85.7908C101.744 86.4527 101.214 86.9881 100.558 86.9881Z" fill="black"/>
<path d="M72.737 115.908C86.0445 115.908 96.8323 104.921 96.8323 91.3683C96.8323 77.8153 86.0445 66.8284 72.737 66.8284C59.4295 66.8284 48.6416 77.8153 48.6416 91.3683C48.6416 104.921 59.4295 115.908 72.737 115.908Z" fill="#6CC6FF"/>
<path d="M72.737 66.8284C86.0439 66.8284 96.8324 77.8147 96.8324 91.3684C96.8324 104.922 86.0439 115.908 72.737 115.908C59.43 115.908 48.6416 104.922 48.6416 91.3684C48.6416 77.8147 59.43 66.8284 72.737 66.8284ZM72.737 64.4338C65.6658 64.4338 59.0165 67.2373 54.017 72.33C49.0217 77.4142 46.2734 84.1763 46.2734 91.3642C46.2734 98.552 49.0217 105.314 54.017 110.398C59.0165 115.491 65.6658 118.294 72.737 118.294C79.8081 118.294 86.4574 115.491 91.457 110.398C96.4523 105.314 99.2005 98.552 99.2005 91.3642C99.2005 84.1763 96.4523 77.4142 91.457 72.33C86.4574 67.2373 79.8081 64.4338 72.737 64.4338Z" fill="black"/>
<path d="M72.737 120.112C85.274 120.112 95.4373 109.853 95.4373 97.1988C95.4373 84.5445 85.274 74.2861 72.737 74.2861C60.1999 74.2861 50.0366 84.5445 50.0366 97.1988C50.0366 109.853 60.1999 120.112 72.737 120.112Z" fill="#FBBAE5"/>
<path d="M72.737 74.2861C85.2754 74.2861 95.4374 84.5431 95.4374 97.1988C95.4374 109.855 85.2754 120.111 72.737 120.111C60.1985 120.111 50.0366 109.855 50.0366 97.1988C50.0366 84.5431 60.1985 74.2861 72.737 74.2861ZM72.737 71.8958C58.9121 71.8958 47.6685 83.2488 47.6685 97.1988C47.6685 111.149 58.9163 122.502 72.737 122.502C86.5577 122.502 97.8055 111.149 97.8055 97.1988C97.8055 83.2488 86.5577 71.8958 72.737 71.8958Z" fill="black"/>
<path d="M61.7775 49.0168C57.3335 49.0168 53.729 55.8253 53.729 64.2231C53.729 72.6209 57.3335 79.4294 61.7775 79.4294V49.0168Z" fill="white"/>
<path d="M61.7776 80.6224C56.5985 80.6224 52.543 73.4176 52.543 64.2231C52.543 55.0285 56.5985 47.8237 61.7776 47.8237C62.4334 47.8237 62.9638 48.3591 62.9638 49.021V79.4335C62.9638 80.0954 62.4334 80.6308 61.7776 80.6308V80.6224ZM60.5956 50.4291C57.4172 51.6137 54.9153 57.4483 54.9153 64.2188C54.9153 70.9894 57.4172 76.824 60.5956 78.0086V50.4291Z" fill="black"/>
<path d="M82.7402 49.0166C87.1842 49.0166 90.7887 55.8251 90.7887 64.2229C90.7887 72.6207 87.1842 79.4291 82.7402 79.4291V49.0166Z" fill="white"/>
<path d="M82.7404 80.6223C82.0846 80.6223 81.5542 80.0869 81.5542 79.425V49.0125C81.5542 48.3506 82.0846 47.8152 82.7404 47.8152C87.9195 47.8152 91.9751 55.0199 91.9751 64.2145C91.9751 73.4091 87.9195 80.6138 82.7404 80.6138V80.6223ZM83.9266 50.429V78.0085C87.105 76.8239 89.6069 70.9893 89.6069 64.2187C89.6069 57.4482 87.105 51.6136 83.9266 50.429Z" fill="black"/>
</g>
<path d="M78.8519 36.8668C81.387 36.8668 83.4421 34.7925 83.4421 32.2337C83.4421 29.6749 81.387 27.6006 78.8519 27.6006C76.3168 27.6006 74.2617 29.6749 74.2617 32.2337C74.2617 34.7925 76.3168 36.8668 78.8519 36.8668Z" fill="white"/>
<path d="M78.8521 38.06C75.6694 38.06 73.0757 35.4462 73.0757 32.2296C73.0757 29.0129 75.6652 26.3992 78.8521 26.3992C82.0389 26.3992 84.6284 29.0129 84.6284 32.2296C84.6284 35.4462 82.0389 38.06 78.8521 38.06ZM78.8521 28.7937C76.9725 28.7937 75.448 30.3367 75.448 32.2338C75.448 34.1309 76.9767 35.6696 78.8521 35.6696C80.7274 35.6696 82.2561 34.1267 82.2561 32.2338C82.2561 30.3409 80.7274 28.7937 78.8521 28.7937Z" fill="black"/>
<path d="M72.737 118.206C83.0965 118.206 91.4946 109.729 91.4946 99.2728C91.4946 88.8164 83.0965 80.3398 72.737 80.3398C62.3775 80.3398 53.9795 88.8164 53.9795 99.2728C53.9795 109.729 62.3775 118.206 72.737 118.206Z" fill="black"/>
<mask id="mask1_669_461" style="mask-type:luminance" maskUnits="userSpaceOnUse" x="47" y="52" width="52" height="93">
<path d="M71.8601 144.107C67.3242 144.107 63.8157 142.088 61.1343 137.927C58.9708 134.576 58.219 131.076 58.1688 130.84L47.748 83.8768C47.3428 82.0261 47.1382 80.1247 47.1382 78.2234C47.1382 63.8814 58.6993 52.2122 72.9084 52.2122C87.1175 52.2122 98.6786 63.8814 98.6786 78.2234C98.6786 80.1247 98.474 82.0261 98.0688 83.8768L87.6396 130.895C87.6104 131.039 86.9254 134.504 84.5865 137.822C81.6419 141.991 77.3649 144.107 71.8684 144.107H71.8601Z" fill="white"/>
</mask>
<g mask="url(#mask1_669_461)">
<path d="M97.2542 121.262C97.2542 133.88 86.2778 144.107 72.7369 144.107C59.1961 144.107 48.2197 133.88 48.2197 121.262C48.2197 108.644 59.075 90.074 72.7369 98.417C83.9723 89.547 97.2542 108.644 97.2542 121.262Z" fill="#ED4A26"/>
<path d="M78.8519 96.1447C88.2828 96.1447 97.2544 110.891 97.2544 121.262C97.2544 133.88 86.278 144.108 72.7372 144.108C59.1963 144.108 48.22 133.88 48.22 121.262C48.22 110.832 55.6378 96.3344 65.925 96.3344C68.0843 96.3344 70.3648 96.971 72.733 98.417C74.7336 96.8361 76.8011 96.1447 78.8435 96.1447M78.8519 93.7544C76.6591 93.7544 74.5624 94.3783 72.5952 95.6093C70.3941 94.5048 68.1595 93.9441 65.9333 93.9441C60.4159 93.9441 55.1951 97.3715 51.2272 103.594C47.8649 108.872 45.856 115.478 45.856 121.262C45.856 128.041 48.6752 134.399 53.8 139.175C58.8705 143.901 65.595 146.502 72.7414 146.502C79.8877 146.502 86.6163 143.901 91.6827 139.175C96.8033 134.403 99.6268 128.041 99.6268 121.262C99.6268 115.744 97.2962 108.919 93.5413 103.455C91.6159 100.651 89.3813 98.3032 87.0758 96.6591C84.3735 94.7325 81.6043 93.7544 78.856 93.7544H78.8519Z" fill="black"/>
</g>
<path d="M101.473 24.8055C101.168 24.8055 100.867 24.6874 100.633 24.4556C100.17 23.9876 100.17 23.233 100.633 22.7651C105.031 18.3259 109.805 14.7677 114.07 12.7484C118.698 10.5562 122.315 10.4255 124.248 12.3774C124.712 12.8454 124.712 13.6 124.248 14.0679C123.785 14.5359 123.037 14.5359 122.574 14.0679C121.433 12.917 118.631 13.229 115.076 14.9153C111.054 16.8208 106.518 20.2103 102.308 24.4598C102.078 24.6917 101.774 24.8097 101.469 24.8097L101.473 24.8055Z" fill="black"/>
<path d="M101.473 24.8056C101.168 24.8056 100.867 24.6876 100.633 24.4557C100.17 23.9877 100.17 23.2331 100.633 22.7652C106.815 16.5258 114.588 14.5866 118.322 18.3597C118.785 18.8277 118.785 19.5823 118.322 20.0502C117.858 20.5182 117.11 20.5182 116.647 20.0502C113.944 17.3226 107.379 19.342 102.308 24.4557C102.078 24.6876 101.774 24.8056 101.469 24.8056H101.473Z" fill="black"/>
<path d="M42.2431 24.8056C41.9382 24.8056 41.6375 24.6875 41.4036 24.4556C37.1935 20.2062 32.6576 16.8167 28.6355 14.9112C25.0853 13.2291 22.2827 12.9129 21.1383 14.0638C20.6747 14.5317 19.927 14.5317 19.4634 14.0638C18.9998 13.5958 18.9998 12.8412 19.4634 12.3733C21.3972 10.4214 25.0143 10.552 29.642 12.7442C33.9065 14.7636 38.6804 18.3217 43.0785 22.7609C43.5421 23.2289 43.5421 23.9835 43.0785 24.4514C42.8488 24.6833 42.5439 24.8013 42.239 24.8013L42.2431 24.8056Z" fill="black"/>
<path d="M42.2429 24.8057C41.938 24.8057 41.6373 24.6876 41.4034 24.4558C38.8264 21.8546 35.8484 19.9913 33.0207 19.2114C30.4228 18.4989 28.3094 18.794 27.069 20.0461C26.6053 20.514 25.8577 20.514 25.3941 20.0461C24.9305 19.5781 24.9305 18.8235 25.3941 18.3556C27.2653 16.4711 30.1931 15.9526 33.6473 16.9053C36.8675 17.7906 40.2172 19.8732 43.0824 22.7653C43.546 23.2332 43.546 23.9878 43.0824 24.4558C42.8527 24.6876 42.5478 24.8057 42.2429 24.8057Z" fill="black"/>
<path d="M130.614 74.0205C129.958 74.0205 129.428 73.4851 129.428 72.8232C129.428 66.7652 124.545 61.8369 118.543 61.8369C117.887 61.8369 117.357 61.3015 117.357 60.6397C117.357 59.9778 117.887 59.4424 118.543 59.4424C125.852 59.4424 131.796 65.4414 131.796 72.819C131.796 73.4809 131.265 74.0163 130.61 74.0163L130.614 74.0205Z" fill="black"/>
<path d="M130.601 74.2355C130.296 74.2355 129.995 74.1175 129.762 73.8856C129.143 73.2617 128.316 72.916 127.439 72.916C126.562 72.916 125.739 73.2617 125.121 73.8856C124.658 74.3536 123.91 74.3536 123.446 73.8856C122.983 73.4177 122.983 72.663 123.446 72.1951C124.516 71.1158 125.931 70.5256 127.443 70.5256C128.955 70.5256 130.371 71.1201 131.441 72.1951C131.904 72.663 131.904 73.4177 131.441 73.8856C131.211 74.1175 130.906 74.2355 130.601 74.2355Z" fill="black"/>
<path d="M14.2677 74.0204C13.612 74.0204 13.0815 73.485 13.0815 72.8232C13.0815 65.4456 19.025 59.4465 26.3342 59.4465C26.9899 59.4465 27.5204 59.9819 27.5204 60.6438C27.5204 61.3057 26.9899 61.8411 26.3342 61.8411C20.3323 61.8411 15.4497 66.7693 15.4497 72.8274C15.4497 73.4893 14.9193 74.0247 14.2635 74.0247L14.2677 74.0204Z" fill="black"/>
<path d="M20.5952 74.2355C20.2903 74.2355 19.9895 74.1175 19.7556 73.8856C18.4776 72.5956 16.3934 72.5956 15.1153 73.8856C14.6517 74.3536 13.9041 74.3536 13.4405 73.8856C12.9769 73.4177 12.9769 72.663 13.4405 72.1951C15.6458 69.9734 19.2294 69.9734 21.4305 72.1951C21.8941 72.663 21.8941 73.4177 21.4305 73.8856C21.2008 74.1175 20.8959 74.2355 20.591 74.2355H20.5952Z" fill="black"/>
<path d="M33.9356 123.615C32.9332 123.615 31.9308 123.45 30.941 123.109C30.3228 122.894 29.9928 122.215 30.2059 121.591C30.4189 120.967 31.0913 120.634 31.7095 120.849C36.0699 122.363 40.9734 119.175 42.8696 113.602C43.0826 112.978 43.7551 112.645 44.3732 112.86C44.9914 113.075 45.3213 113.754 45.1083 114.378C43.187 120.019 38.6219 123.619 33.9315 123.619L33.9356 123.615Z" fill="black"/>
<path d="M43.4125 130.794C41.8129 130.794 40.2048 130.524 38.6469 129.985C34.9505 128.703 31.9726 126.047 30.2559 122.502C29.9677 121.907 30.2142 121.19 30.7989 120.904C31.3878 120.613 32.0979 120.862 32.3819 121.452C33.8187 124.42 36.3163 126.646 39.4113 127.721C42.5062 128.796 45.835 128.585 48.7754 127.135C49.3643 126.844 50.0744 127.093 50.3584 127.683C50.6466 128.277 50.4001 128.994 49.8154 129.281C47.7855 130.284 45.6011 130.786 43.4042 130.786L43.4125 130.794Z" fill="black"/>
<path d="M23.7529 106.857C22.4832 106.857 21.2093 106.65 19.9605 106.216C19.3423 106.001 19.0124 105.322 19.2254 104.698C19.4384 104.074 20.1108 103.741 20.729 103.956C26.6181 105.997 33.2215 101.739 35.7693 94.2644C35.9823 93.6404 36.6547 93.3074 37.2729 93.5224C37.8911 93.7374 38.221 94.4161 38.008 95.0401C35.5521 102.253 29.7256 106.861 23.7529 106.861V106.857Z" fill="black"/>
<path d="M36.1367 116.229C34.086 116.229 32.0269 115.883 30.0346 115.191C25.3024 113.552 21.4807 110.145 19.2838 105.605C18.9956 105.01 19.242 104.294 19.8267 104.007C20.4156 103.716 21.1257 103.965 21.4097 104.555C23.331 108.522 26.664 111.494 30.7989 112.928C34.9338 114.361 39.3737 114.083 43.3039 112.148C43.8929 111.857 44.6029 112.106 44.8869 112.696C45.1751 113.29 44.9287 114.007 44.3439 114.294C41.7419 115.575 38.9435 116.224 36.1326 116.224L36.1367 116.229Z" fill="black"/>
<path d="M16.6523 88.1642C15.3826 88.1642 14.1087 87.9576 12.8599 87.5234C12.2418 87.3084 11.9118 86.6297 12.1248 86.0057C12.3378 85.3818 13.0103 85.0488 13.6284 85.2638C19.5176 87.3042 26.1209 83.0463 28.6687 75.5717C28.8817 74.9478 29.5542 74.6147 30.1723 74.8298C30.7905 75.0448 31.1204 75.7235 30.9074 76.3474C28.4515 83.5606 22.625 88.1684 16.6523 88.1684V88.1642Z" fill="black"/>
<path d="M29.0361 97.5359C26.9854 97.5359 24.9263 97.1902 22.934 96.4989C18.2018 94.8589 14.3843 91.4526 12.1832 86.9122C11.895 86.3178 12.1414 85.6011 12.7261 85.3144C13.3151 85.0235 14.0251 85.2723 14.3091 85.8625C16.2304 89.8295 19.5634 92.8016 23.6983 94.235C27.8333 95.6684 32.2773 95.3901 36.2034 93.4551C36.7923 93.1642 37.5023 93.4129 37.7863 94.0031C38.0745 94.5975 37.8281 95.3142 37.2434 95.6009C34.6413 96.8825 31.8429 97.5317 29.032 97.5317L29.0361 97.5359Z" fill="black"/>
<path d="M111.447 123.615C106.757 123.615 102.187 120.019 100.27 114.374C100.057 113.75 100.387 113.067 101.005 112.856C101.624 112.641 102.3 112.974 102.509 113.598C104.405 119.176 109.309 122.358 113.669 120.845C114.291 120.63 114.964 120.963 115.173 121.587C115.386 122.211 115.056 122.894 114.438 123.105C113.452 123.446 112.445 123.611 111.443 123.611L111.447 123.615Z" fill="black"/>
<path d="M101.958 130.782C99.8066 130.782 97.6222 130.301 95.5589 129.285C94.97 128.994 94.7277 128.277 95.0159 127.687C95.3041 127.093 96.01 126.848 96.5989 127.139C102.672 130.132 110.027 127.586 112.992 121.456C113.281 120.862 113.986 120.617 114.575 120.908C115.164 121.199 115.407 121.916 115.118 122.506C112.583 127.738 107.371 130.786 101.953 130.786L101.958 130.782Z" fill="black"/>
<path d="M121.63 106.857C115.653 106.857 109.831 102.253 107.375 95.0359C107.162 94.412 107.492 93.729 108.11 93.5182C108.728 93.3032 109.405 93.6363 109.614 94.2602C112.157 101.739 118.765 105.997 124.654 103.952C125.272 103.737 125.949 104.07 126.157 104.694C126.37 105.318 126.04 106.001 125.422 106.212C124.173 106.646 122.895 106.853 121.63 106.853V106.857Z" fill="black"/>
<path d="M109.246 116.229C106.435 116.229 103.637 115.58 101.034 114.298C100.446 114.007 100.203 113.29 100.492 112.7C100.78 112.106 101.486 111.861 102.074 112.152C106.005 114.091 110.445 114.365 114.58 112.932C118.714 111.499 122.052 108.522 123.969 104.56C124.257 103.965 124.963 103.721 125.552 104.011C126.141 104.302 126.383 105.019 126.095 105.609C123.898 110.15 120.08 113.552 115.344 115.196C113.347 115.887 111.288 116.233 109.242 116.233L109.246 116.229Z" fill="black"/>
<path d="M128.73 88.1643C122.754 88.1643 116.931 83.5607 114.475 76.3433C114.262 75.7193 114.592 75.0364 115.21 74.8256C115.829 74.6106 116.505 74.9436 116.714 75.5676C119.258 83.0463 125.865 87.3043 131.754 85.2596C132.377 85.0446 133.049 85.3777 133.258 86.0016C133.471 86.6255 133.141 87.3085 132.523 87.5193C131.274 87.9535 129.996 88.1601 128.73 88.1601V88.1643Z" fill="black"/>
<path d="M116.334 97.5276C113.577 97.5276 110.779 96.9121 108.135 95.6094C107.546 95.3186 107.304 94.6019 107.592 94.0117C107.88 93.4172 108.586 93.1727 109.175 93.4636C117.286 97.4644 127.11 94.058 131.069 85.871C131.358 85.2766 132.063 85.0321 132.652 85.323C133.241 85.6139 133.483 86.3305 133.195 86.9208C129.95 93.628 123.267 97.5318 116.33 97.5318L116.334 97.5276Z" fill="black"/>
<path d="M42.7944 47.6255C43.4357 47.6255 43.9555 47.1007 43.9555 46.4535C43.9555 45.8062 43.4357 45.2815 42.7944 45.2815C42.1532 45.2815 41.6333 45.8062 41.6333 46.4535C41.6333 47.1007 42.1532 47.6255 42.7944 47.6255Z" fill="black"/>
<path d="M46.7583 50.2434C47.3996 50.2434 47.9194 49.7187 47.9194 49.0714C47.9194 48.4241 47.3996 47.8994 46.7583 47.8994C46.117 47.8994 45.5972 48.4241 45.5972 49.0714C45.5972 49.7187 46.117 50.2434 46.7583 50.2434Z" fill="black"/>
<path d="M49.8071 45.4038C50.4484 45.4038 50.9682 44.8791 50.9682 44.2318C50.9682 43.5845 50.4484 43.0598 49.8071 43.0598C49.1658 43.0598 48.646 43.5845 48.646 44.2318C48.646 44.8791 49.1658 45.4038 49.8071 45.4038Z" fill="black"/>
<path d="M41.9175 52.5874C42.5587 52.5874 43.0786 52.0627 43.0786 51.4154C43.0786 50.7681 42.5587 50.2434 41.9175 50.2434C41.2762 50.2434 40.7563 50.7681 40.7563 51.4154C40.7563 52.0627 41.2762 52.5874 41.9175 52.5874Z" fill="black"/>
<path d="M45.3506 43.6501C45.9918 43.6501 46.5117 43.1254 46.5117 42.4781C46.5117 41.8309 45.9918 41.3062 45.3506 41.3062C44.7093 41.3062 44.1895 41.8309 44.1895 42.4781C44.1895 43.1254 44.7093 43.6501 45.3506 43.6501Z" fill="black"/>
<path d="M48.855 40.8423C49.4962 40.8423 50.0161 40.3175 50.0161 39.6703C50.0161 39.023 49.4962 38.4983 48.855 38.4983C48.2137 38.4983 47.6938 39.023 47.6938 39.6703C47.6938 40.3175 48.2137 40.8423 48.855 40.8423Z" fill="black"/>
<path d="M100.967 47.6255C101.609 47.6255 102.128 47.1007 102.128 46.4535C102.128 45.8062 101.609 45.2815 100.967 45.2815C100.326 45.2815 99.8062 45.8062 99.8062 46.4535C99.8062 47.1007 100.326 47.6255 100.967 47.6255Z" fill="black"/>
<path d="M97.0039 50.2434C97.6452 50.2434 98.165 49.7187 98.165 49.0714C98.165 48.4241 97.6452 47.8994 97.0039 47.8994C96.3626 47.8994 95.8428 48.4241 95.8428 49.0714C95.8428 49.7187 96.3626 50.2434 97.0039 50.2434Z" fill="black"/>
<path d="M93.959 45.4038C94.6002 45.4038 95.1201 44.8791 95.1201 44.2318C95.1201 43.5845 94.6002 43.0598 93.959 43.0598C93.3177 43.0598 92.7979 43.5845 92.7979 44.2318C92.7979 44.8791 93.3177 45.4038 93.959 45.4038Z" fill="black"/>
<path d="M101.845 52.5874C102.486 52.5874 103.006 52.0627 103.006 51.4154C103.006 50.7681 102.486 50.2434 101.845 50.2434C101.203 50.2434 100.684 50.7681 100.684 51.4154C100.684 52.0627 101.203 52.5874 101.845 52.5874Z" fill="black"/>
<path d="M98.4155 43.6501C99.0568 43.6501 99.5766 43.1254 99.5766 42.4781C99.5766 41.8309 99.0568 41.3062 98.4155 41.3062C97.7742 41.3062 97.2544 41.8309 97.2544 42.4781C97.2544 43.1254 97.7742 43.6501 98.4155 43.6501Z" fill="black"/>
<path d="M94.9072 40.8423C95.5485 40.8423 96.0683 40.3175 96.0683 39.6703C96.0683 39.023 95.5485 38.4983 94.9072 38.4983C94.2659 38.4983 93.7461 39.023 93.7461 39.6703C93.7461 40.3175 94.2659 40.8423 94.9072 40.8423Z" fill="black"/>
<path d="M94.9071 40.8171C94.3975 40.8171 93.9255 40.4841 93.771 39.9655C93.5831 39.3331 93.9381 38.6671 94.5646 38.4773L136.098 25.9101C136.724 25.7204 137.384 26.0788 137.572 26.7111C137.76 27.3435 137.405 28.0096 136.778 28.1993L95.2454 40.7665C95.1326 40.8002 95.0157 40.8171 94.9029 40.8171H94.9071Z" fill="black"/>
<path d="M98.3321 43.8313C97.7599 43.8313 97.2545 43.4097 97.1626 42.8195C97.0624 42.166 97.5051 41.5548 98.1525 41.4536L134.79 35.6864C135.438 35.5852 136.043 36.0321 136.144 36.6855C136.244 37.339 135.801 37.9503 135.154 38.0515L98.5158 43.8186C98.4532 43.8271 98.3905 43.8313 98.3321 43.8313Z" fill="black"/>
<path d="M132.744 48.1777C132.744 48.1777 132.727 48.1777 132.723 48.1777L100.667 47.5791C100.011 47.5664 99.4931 47.0226 99.5056 46.3607C99.5181 45.7073 100.044 45.1887 100.688 45.1887C100.696 45.1887 100.704 45.1887 100.708 45.1887L132.765 45.7874C133.42 45.8 133.938 46.3438 133.926 47.0057C133.913 47.6592 133.387 48.1777 132.744 48.1777Z" fill="black"/>
<path d="M129.945 57.4061C129.878 57.4061 129.812 57.4019 129.745 57.3892L101.928 52.5917C101.285 52.4821 100.85 51.8623 100.959 51.2131C101.068 50.5639 101.677 50.1254 102.325 50.2351L130.142 55.0326C130.785 55.1422 131.219 55.7619 131.111 56.4112C131.01 56.9929 130.509 57.4061 129.945 57.4061Z" fill="black"/>
<path d="M49.093 40.8171C48.9802 40.8171 48.8674 40.8002 48.7505 40.7665L7.21741 28.1993C6.59091 28.0096 6.23589 27.3435 6.42384 26.7111C6.61179 26.0788 7.27171 25.7204 7.89821 25.9101L49.4313 38.4773C50.0578 38.6671 50.4128 39.3331 50.2249 39.9655C50.0703 40.4841 49.5984 40.8171 49.0888 40.8171H49.093Z" fill="black"/>
<path d="M45.6681 43.8313C45.6054 43.8313 45.547 43.8271 45.4843 43.8186L8.84632 38.0515C8.19893 37.9503 7.7562 37.339 7.85644 36.6855C7.95668 36.0321 8.5623 35.5852 9.20969 35.6864L45.8477 41.4536C46.4951 41.5548 46.9378 42.166 46.8376 42.8195C46.7457 43.4097 46.2403 43.8313 45.6681 43.8313Z" fill="black"/>
<path d="M11.2564 48.1777C10.6132 48.1777 10.0828 47.655 10.0744 47.0057C10.0619 46.3439 10.584 45.8 11.2356 45.7874L43.2917 45.1887C43.9516 45.1845 44.4863 45.7031 44.4988 46.3607C44.5113 47.0226 43.9892 47.5664 43.3377 47.5791L11.2815 48.1777C11.2815 48.1777 11.2648 48.1777 11.2606 48.1777H11.2564Z" fill="black"/>
<path d="M14.0546 57.4062C13.4866 57.4062 12.9854 56.993 12.8893 56.4113C12.7807 55.762 13.2109 55.1423 13.8583 55.0327L41.6751 50.2352C42.3183 50.1256 42.9323 50.5598 43.0409 51.2132C43.1495 51.8625 42.7193 52.4822 42.0719 52.5918L14.2551 57.3893C14.1883 57.402 14.1214 57.4062 14.0546 57.4062Z" fill="black"/>
<path d="M64.3671 120.128C60.8629 120.128 58.0186 125.495 58.0186 132.118C58.0186 138.741 60.8587 144.107 64.3671 144.107V120.128Z" fill="white"/>
<path d="M64.367 145.305C60.1444 145.305 56.8364 139.512 56.8364 132.118C56.8364 124.723 60.1444 118.931 64.367 118.931C65.0228 118.931 65.5532 119.466 65.5532 120.128V144.107C65.5532 144.769 65.0228 145.305 64.367 145.305ZM63.1808 121.621C60.7876 122.856 59.2046 127.704 59.2046 132.118C59.2046 136.532 60.7876 141.38 63.1808 142.615V121.625V121.621Z" fill="black"/>
<path d="M80.6562 120.128C84.1605 120.128 87.0048 125.495 87.0048 132.118C87.0048 138.741 84.1647 144.107 80.6562 144.107V120.128Z" fill="white"/>
<path d="M80.6564 145.305C80.0007 145.305 79.4702 144.769 79.4702 144.107V120.128C79.4702 119.466 80.0007 118.931 80.6564 118.931C84.879 118.931 88.187 124.723 88.187 132.118C88.187 139.512 84.879 145.305 80.6564 145.305ZM81.8426 121.621V142.611C84.2358 141.376 85.8188 136.528 85.8188 132.114C85.8188 127.7 84.2358 122.852 81.8426 121.616V121.621Z" fill="black"/>
</g>
<defs>
<clipPath id="clip0_669_461">
<rect width="144" height="166" fill="white"/>
</clipPath>
</defs>
</svg>
